<svg xmlns="http://www.w3.org/2000/svg" xmlns:xlink="http://www.w3.org/1999/xlink" version="1.1" width="1104px" height="475px" viewBox="-0.5 -0.5 1104 475" content="&lt;mxfile&gt;&lt;diagram id=&quot;lattice&quot; name=&quot;lattice&quot;&gt;7VtZb9s4EP41BtoHG7p85DHy0RZIF8F6sX0MGImWtaFEQaTtpL9+hxIlmSIr24mz2aS200Ya3vPNxSHTc6fJ45ccZevvNMSk51jhY8+d9RzH9oYu/BKUJ0mxnauSEuVxKGkNYRn/xJJoSeomDjFTKnJKCY8zlRjQNMUBV2goz+lOrbaiRB01QxHWCMsAEZ36Iw75ulrGxGoKvuI4Wsuhh1VBgqrKksDWKKS7PZI777nTnFJePiWPU0wE9yq+lO0WvyitJ5bjlB/TgMec4H6U001WNt0ispGrlDPkT9Wyy2quv6IpX6AkJgK/r5hsMY8DBAX66CoQ6L7qSi5/i3OOH/eqyll+wTTBPH+CKrLUky2kyFQd7PbZb0nieo/1EylrSEIe1T03XIEHyZguJsFEucajv2+htXWDOHAAw9Onm/FnjW9FS9df8wRGmNnwiEgcpfBM8EqUCDYAB8m1JHNasVnKvjOp3mWv9mkw6DAfZvwea69MnK0QeQln2ea+g7lLnG9LtqaY72j+0BOww/KsP6+/i+e505uMeleOAgGrW+2XxynHeYrE4Nc3fqvw+vZb0bXVG0/Lh28gsbCua1H4Yyn+z4N1zEGGNzmuy88PtO11ASsKppTQvBjOHXpDf+SdDfAnFddD+DveuTSL4SOMD4lTePIZz+lDbXUdldtl4R6HFosrMfdX1xXJurHBKlkTA+/sM+gOCoJ+iLca5wqaBaV0A0sCaZ46PX8MD7Y1cJyBNYCxF/ZIY/AqJmSPdauh+GpMJWIR/RDlD5+g0qj49ByYrDvzxPcztADWpSEOJSg7oTfLDAVinB1EBCpmHSrRsnWViji6JpSfLpxBXzkCEcplhwElBGUsLj2SEJHaFduamNldvu3ZPsx2dXFxHYO0uKMziMs2M4vLFAzZJgG+OFbhzDqkQsV+MvUWi4U1K9Gv3j6b1LAsFPBAbxWsaMPpmwhLM5vnC4suDao6Hi0TjioTBuPrmAyIa51BJCJwu0x3u1MSi1UdsA/AQmc+MaE9n43twuj+99DWQ7+SHRgMjdirunU09hMV+yuD9zCZg5r4EuxjM/bXCfpJU6DNwWs4IyKCljCGlY0iXiy9JMUVoewEoivGUSqCrrIcRo/bbYCm9NQSL/aAebCWGGQU4rVidUMffmC90/LfsDA3QBk4QwPRRBvrRFuvBr9s0whtook21om2Xk28VbNWiSbaeKjPuN3aNrS2W63hx/XphovwaVpvhy1ddeC7EKLit/S8VilNz1fFRwgIYutCza09Pb5B95jcUhbzmAp9vqec0+SXil4FygEWgbpqGvaV3moZBfGOWFYuaxU/inkIFc5EYfIYiQzEAO2YN8gxo5s8wCJ0F8YJs/JJrYUDp8t8KMZBNwSKRT3aDrgjxQ4YwgJvYth/Tc7hAQjq2nclmK0POYL5bD5ejDrd/vv08c9wBKeHhK7qA4yJjVd0Aib4ax/QSm4c9gZM37Bf/MEH8we1Zv0e/gBCuzsiNeAlfqFRtHfhFnKU6G5hjUTu69C2YO7P5ybxmM1cz5u+iTeoh35n3sA1JZRe0RuYUC/Tn0XC9bADCHLKWL/OPV2M/wcz/rUi/R7Gv6p1BxKNGbtLUIqiYkLPdwSNjr0DRyCSWoxpNoEJTxD2ZbjHWklm+5JkfpYXOY8PGR2RZR6aznPOlmU2CMxSE5hLrvmFueaay2dMNXsjk1ycJ9WMyL0mFn+hPMIHM82XBIOaaT4d+fpmxNtkmk3QF4fwhwPK5lifS1k5T0x5UhAEEUEojkSqspQWR9HHbYxl5f9dWFRE1Tifb3EZXNu/CpVQlhGYi5jiHaEovLtHROT6O8MgU+TTiME7iHxgupl+K6G4KHI5F3tda+W+sbUy4X7isVgGZgvnxcUfNXt62Qt/mL3w5WDspH1vo1bvwPpjW1NDHEa44i3N+ZpGNEVk3lBbZr2pc0MFkAXxH8z5k0RM7km6rq/VF/xM5vb0W7glzJWda04qZWjVPhISK+6EKcdQN95iZZCXsb1PNNvbHCrN/lgaYSk0qme8d1lrTVu5kjgMS9Qwi3+ixs2pFlYYCSK691HwEBUIq76+2QRUith5NbdlWyxr7Pq+EbNKBF9wdfpofGTTW7H0Rv363lDdMKod0NWKyc3bPrz1+Mch7nx8RasVStWzOhx+Az1zPz7Xa/a2uF65oVfnOrw2f8dRqkbz5zDu/F8=&lt;/diagram&gt;&lt;/mxfile&gt;"><defs/>
<style>
@media (prefers-color-scheme: dark) {
  /* Account container fills */
  rect[fill="#f5f5f5"] { fill: #2a2a3e !important; }
  /* Account container strokes */
  rect[stroke="light-dark(#666666,#d4d4d4)"] { stroke: #555577 !important; }
  /* VPC container fills */
  rect[fill="light-dark(#8c4fff0d,#8c4fff0d)"] { fill: rgba(140,79,255,0.1) !important; }
  /* Drop shadows - darken for dark mode */
  [transform*="translate(2,3)"][opacity="0.25"] { opacity: 0.5 !important; }
  /* Purple group box fills */
  rect[fill="#ede7f6"] { fill: #2d2350 !important; }
  /* Orange group box fills */
  rect[fill="#fff2e8"] { fill: #3d2a18 !important; }
  /* Red group box fills */
  rect[fill="#ffebee"] { fill: #3d1a22 !important; }
  /* Edge label background rects */
  rect[fill="#ffffff"] { fill: #2a2a3e !important; }
  /* Edge lines */
  path[stroke="#545b64"] { stroke: #8899aa !important; }
  /* Title text - dark to light */
  text[fill="rgb(0, 0, 0)"] { fill: #e8e8f0; }
  /* Subtitle text */
  text[fill="#545B64"], text[fill="#545b64"] { fill: #9aa8b8; }
  /* Account label text */
  text[fill="#333333"] { fill: #d0d0e0; }
  /* Icon description text */
  text[fill="#232F3E"] { fill: #c8d0d8; }
  /* Edge label text */
  text[fill="#0073BB"] { fill: #4db8ff; }
  /* VPC label text - brighter purple */
  text[fill="#8C4FFF"] { fill: #b088ff; }
  /* Compute label text - brighter orange */
  text[fill="#ED7100"] { fill: #ff9933; }
  /* Security label text - brighter red */
  text[fill="#DD344C"] { fill: #ff5577; }
  /* foreignObject text color overrides */
  [data-drawio-colors*="color: rgb(0, 0, 0)"] div { color: #e8e8f0 !important; }
  [data-drawio-colors*="color: #333333"] div { color: #d0d0e0 !important; }
  [data-drawio-colors*="color: #232F3E"] div { color: #c8d0d8 !important; }
  [data-drawio-colors*="color: #545B64"] div { color: #9aa8b8 !important; }
  [data-drawio-colors*="color: #8C4FFF"] div { color: #b088ff !important; }
  [data-drawio-colors*="color: #ED7100"] div { color: #ff9933 !important; }
  [data-drawio-colors*="color: #DD344C"] div { color: #ff5577 !important; }
  [data-drawio-colors*="color: #0073BB"] div { color: #4db8ff !important; }
}
</style><g><g transform="translate(-0.5 -0.5)"><switch><foreignObject pointer-events="none" width="100%" height="100%" requiredFeatures="http://www.w3.org/TR/SVG11/feature#Extensibility" style="overflow: visible; text-align: left;"><div xmlns="http://www.w3.org/1999/xhtml" style="display: flex; align-items: unsafe flex-start; justify-content: unsafe flex-start; width: 1px; height: 1px; padding-top: 7px; margin-left: 3px;"><div data-drawio-colors="color: rgb(0, 0, 0); " style="box-sizing: border-box; font-size: 0px; text-align: left;"><div style="display: inline-block; font-size: 28px; font-family: Helvetica; color: rgb(0, 0, 0); line-height: 1.2; pointer-events: none; font-weight: bold; white-space: nowrap;">VPC Lattice (L7)</div></div></div></foreignObject><text x="3" y="35" fill="rgb(0, 0, 0)" font-family="Helvetica" font-size="28px" font-weight="bold">VPC Lattice (L7)</text></switch></g><g transform="translate(-0.5 -0.5)"><switch><foreignObject pointer-events="none" width="100%" height="100%" requiredFeatures="http://www.w3.org/TR/SVG11/feature#Extensibility" style="overflow: visible; text-align: left;"><div xmlns="http://www.w3.org/1999/xhtml" style="display: flex; align-items: unsafe flex-start; justify-content: unsafe flex-start; width: 1px; height: 1px; padding-top: 47px; margin-left: 3px;"><div data-drawio-colors="color: #545B64; " style="box-sizing: border-box; font-size: 0px; text-align: left;"><div style="display: inline-block; font-size: 14px; font-family: Helvetica; color: rgb(84, 91, 100); line-height: 1.2; pointer-events: none; white-space: nowrap;">Service network + RAM → Lattice service → internal ALB → API  |  Icons: AWS Architecture Icons</div></div></div></foreignObject><text x="3" y="61" fill="#545B64" font-family="Helvetica" font-size="14px">Service network + RAM → Lattice service → internal ALB → API  |  Icons: AWS Architecture Icons</text></switch></g><path d="M 1 75 L 1081 75" fill="none" stroke="#ff9900" stroke-width="2" stroke-miterlimit="10" pointer-events="none"/><rect x="1" y="110" width="320" height="360" rx="48" ry="48" fill="#000000" stroke="#000000" pointer-events="none" transform="translate(2,3)" opacity="0.25"/><rect x="1" y="110" width="320" height="360" rx="48" ry="48" fill="#f5f5f5" stroke="light-dark(#666666,#d4d4d4)" pointer-events="none"/><g transform="translate(-0.5 -0.5)"><switch><foreignObject pointer-events="none" width="100%" height="100%" requiredFeatures="http://www.w3.org/TR/SVG11/feature#Extensibility" style="overflow: visible; text-align: left;"><div xmlns="http://www.w3.org/1999/xhtml" style="display: flex; align-items: unsafe flex-start; justify-content: unsafe center; width: 318px; height: 1px; padding-top: 117px; margin-left: 2px;"><div data-drawio-colors="color: #333333; " style="box-sizing: border-box; font-size: 0px; text-align: center;"><div style="display: inline-block; font-size: 12px; font-family: Helvetica; color: rgb(51, 51, 51); line-height: 1.2; pointer-events: none; font-weight: bold; white-space: normal; overflow-wrap: normal;">dev account · 10.22.0.0/16</div></div></div></foreignObject><text x="161" y="129" fill="#333333" font-family="Helvetica" font-size="12px" text-anchor="middle" font-weight="bold">dev account · 10.22.0.0/16</text></switch></g><rect x="21" y="150" width="280" height="300" rx="42" ry="42" fill="light-dark(#8c4fff0d,#8c4fff0d)" stroke="#8c4fff" pointer-events="none"/><g transform="translate(-0.5 -0.5)"><switch><foreignObject pointer-events="none" width="100%" height="100%" requiredFeatures="http://www.w3.org/TR/SVG11/feature#Extensibility" style="overflow: visible; text-align: left;"><div xmlns="http://www.w3.org/1999/xhtml" style="display: flex; align-items: unsafe flex-start; justify-content: unsafe center; width: 278px; height: 1px; padding-top: 157px; margin-left: 22px;"><div data-drawio-colors="color: #8C4FFF; " style="box-sizing: border-box; font-size: 0px; text-align: center;"><div style="display: inline-block; font-size: 12px; font-family: Helvetica; color: rgb(140, 79, 255); line-height: 1.2; pointer-events: none; font-weight: bold; white-space: normal; overflow-wrap: normal;">Consumer VPC</div></div></div></foreignObject><text x="161" y="169" fill="#8C4FFF" font-family="Helvetica" font-size="12px" text-anchor="middle" font-weight="bold">Consumer VPC</text></switch></g><rect x="101" y="240" width="120" height="120" rx="18" ry="18" fill="#000000" stroke="#000000" stroke-width="1.5" pointer-events="none" transform="translate(2,3)" opacity="0.25"/><rect x="101" y="240" width="120" height="120" rx="18" ry="18" fill="#fff2e8" stroke="#ed7100" stroke-width="1.5" pointer-events="none"/><g transform="translate(-0.5 -0.5)"><switch><foreignObject pointer-events="none" width="100%" height="100%" requiredFeatures="http://www.w3.org/TR/SVG11/feature#Extensibility" style="overflow: visible; text-align: left;"><div xmlns="http://www.w3.org/1999/xhtml" style="display: flex; align-items: unsafe flex-start; justify-content: unsafe center; width: 118px; height: 1px; padding-top: 247px; margin-left: 102px;"><div data-drawio-colors="color: #ED7100; " style="box-sizing: border-box; font-size: 0px; text-align: center;"><div style="display: inline-block; font-size: 12px; font-family: Helvetica; color: rgb(237, 113, 0); line-height: 1.2; pointer-events: none; font-weight: bold; white-space: normal; overflow-wrap: normal;">Client</div></div></div></foreignObject><text x="161" y="259" fill="#ED7100" font-family="Helvetica" font-size="12px" text-anchor="middle" font-weight="bold">Client</text></switch></g><path d="M 137 270 L 185 270 L 185 318 L 137 318 Z" fill="#000000" stroke="none" pointer-events="none" transform="translate(2,3)" opacity="0.25"/><path d="M 137 270 L 185 270 L 185 318 L 137 318 Z" fill="#ed7100" stroke="none" pointer-events="none"/><path d="M 152.09 302.91 L 169.23 302.91 L 169.23 285.77 L 152.09 285.77 Z M 170.6 285.77 L 173.34 285.77 L 173.34 287.14 L 170.6 287.14 L 170.6 289.89 L 173.34 289.89 L 173.34 291.26 L 170.6 291.26 L 170.6 293.31 L 173.34 293.31 L 173.34 294.69 L 170.6 294.69 L 170.6 297.43 L 173.34 297.43 L 173.34 298.8 L 170.6 298.8 L 170.6 301.54 L 173.34 301.54 L 173.34 302.91 L 170.6 302.91 L 170.6 303.01 C 170.6 303.71 170.03 304.29 169.32 304.29 L 169.23 304.29 L 169.23 307.03 L 167.86 307.03 L 167.86 304.29 L 165.11 304.29 L 165.11 307.03 L 163.74 307.03 L 163.74 304.29 L 161.69 304.29 L 161.69 307.03 L 160.31 307.03 L 160.31 304.29 L 157.57 304.29 L 157.57 307.03 L 156.2 307.03 L 156.2 304.29 L 153.46 304.29 L 153.46 307.03 L 152.09 307.03 L 152.09 304.29 L 151.99 304.29 C 151.29 304.29 150.71 303.71 150.71 303.01 L 150.71 302.91 L 148.66 302.91 L 148.66 301.54 L 150.71 301.54 L 150.71 298.8 L 148.66 298.8 L 148.66 297.43 L 150.71 297.43 L 150.71 294.69 L 148.66 294.69 L 148.66 293.31 L 150.71 293.31 L 150.71 291.26 L 148.66 291.26 L 148.66 289.89 L 150.71 289.89 L 150.71 287.14 L 148.66 287.14 L 148.66 285.77 L 150.71 285.77 L 150.71 285.68 C 150.71 284.97 151.29 284.4 151.99 284.4 L 152.09 284.4 L 152.09 281.66 L 153.46 281.66 L 153.46 284.4 L 156.2 284.4 L 156.2 281.66 L 157.57 281.66 L 157.57 284.4 L 160.31 284.4 L 160.31 281.66 L 161.69 281.66 L 161.69 284.4 L 163.74 284.4 L 163.74 281.66 L 165.11 281.66 L 165.11 284.4 L 167.86 284.4 L 167.86 281.66 L 169.23 281.66 L 169.23 284.4 L 169.32 284.4 C 170.03 284.4 170.6 284.97 170.6 285.68 Z M 161.69 311.74 C 161.69 311.79 161.65 311.83 161.6 311.83 L 143.26 311.83 C 143.21 311.83 143.17 311.79 143.17 311.74 L 143.17 293.4 C 143.17 293.35 143.21 293.31 143.26 293.31 L 147.29 293.31 L 147.29 291.94 L 143.26 291.94 C 142.45 291.94 141.8 292.6 141.8 293.4 L 141.8 311.74 C 141.8 312.55 142.45 313.2 143.26 313.2 L 161.6 313.2 C 162.4 313.2 163.06 312.55 163.06 311.74 L 163.06 308.4 L 161.69 308.4 Z M 180.2 276.26 L 180.2 294.6 C 180.2 295.4 179.55 296.06 178.74 296.06 L 174.71 296.06 L 174.71 294.69 L 178.74 294.69 C 178.79 294.69 178.83 294.65 178.83 294.6 L 178.83 276.26 C 178.83 276.21 178.79 276.17 178.74 276.17 L 160.4 276.17 C 160.35 276.17 160.31 276.21 160.31 276.26 L 160.31 280.29 L 158.94 280.29 L 158.94 276.26 C 158.94 275.45 159.6 274.8 160.4 274.8 L 178.74 274.8 C 179.55 274.8 180.2 275.45 180.2 276.26 Z" fill="#ffffff" stroke="none" pointer-events="none"/><g transform="translate(-0.5 -0.5)"><switch><foreignObject pointer-events="none" width="100%" height="100%" requiredFeatures="http://www.w3.org/TR/SVG11/feature#Extensibility" style="overflow: visible; text-align: left;"><div xmlns="http://www.w3.org/1999/xhtml" style="display: flex; align-items: unsafe flex-start; justify-content: unsafe center; width: 1px; height: 1px; padding-top: 325px; margin-left: 161px;"><div data-drawio-colors="color: #232F3E; " style="box-sizing: border-box; font-size: 0px; text-align: center;"><div style="display: inline-block; font-size: 10px; font-family: Helvetica; color: rgb(35, 47, 62); line-height: 1.2; pointer-events: none; white-space: nowrap;">Amazon EC2<div><i>test instance</i></div></div></div></div></foreignObject><text x="161" y="335" fill="#232F3E" font-family="Helvetica" font-size="10px" text-anchor="middle">Amazon EC...</text></switch></g><rect x="391" y="200" width="120" height="120" rx="18" ry="18" fill="#000000" stroke="#000000" stroke-width="1.5" pointer-events="none" transform="translate(2,3)" opacity="0.25"/><rect x="391" y="200" width="120" height="120" rx="18" ry="18" fill="#ede7f6" stroke="#8c4fff" stroke-width="1.5" pointer-events="none"/><g transform="translate(-0.5 -0.5)"><switch><foreignObject pointer-events="none" width="100%" height="100%" requiredFeatures="http://www.w3.org/TR/SVG11/feature#Extensibility" style="overflow: visible; text-align: left;"><div xmlns="http://www.w3.org/1999/xhtml" style="display: flex; align-items: unsafe flex-start; justify-content: unsafe center; width: 118px; height: 1px; padding-top: 207px; margin-left: 392px;"><div data-drawio-colors="color: #8C4FFF; " style="box-sizing: border-box; font-size: 0px; text-align: center;"><div style="display: inline-block; font-size: 12px; font-family: Helvetica; color: rgb(140, 79, 255); line-height: 1.2; pointer-events: none; font-weight: bold; white-space: normal; overflow-wrap: normal;">Service mesh</div></div></div></foreignObject><text x="451" y="219" fill="#8C4FFF" font-family="Helvetica" font-size="12px" text-anchor="middle" font-weight="bold">Service mesh</text></switch></g><path d="M 427 230 L 475 230 L 475 278 L 427 278 Z" fill="#000000" stroke="none" pointer-events="none" transform="translate(2,3)" opacity="0.25"/><path d="M 427 230 L 475 230 L 475 278 L 427 278 Z" fill="#8c4fff" stroke="none" pointer-events="none"/><g transform="translate(-0.5 -0.5)"><switch><foreignObject pointer-events="none" width="100%" height="100%" requiredFeatures="http://www.w3.org/TR/SVG11/feature#Extensibility" style="overflow: visible; text-align: left;"><div xmlns="http://www.w3.org/1999/xhtml" style="display: flex; align-items: unsafe flex-start; justify-content: unsafe center; width: 1px; height: 1px; padding-top: 285px; margin-left: 451px;"><div data-drawio-colors="color: #232F3E; " style="box-sizing: border-box; font-size: 0px; text-align: center;"><div style="display: inline-block; font-size: 10px; font-family: Helvetica; color: rgb(35, 47, 62); line-height: 1.2; pointer-events: none; white-space: nowrap;">Amazon VPC Lattice<div><i>service network</i></div></div></div></div></foreignObject><text x="451" y="295" fill="#232F3E" font-family="Helvetica" font-size="10px" text-anchor="middle">Amazon VP...</text></switch></g><rect x="391" y="350" width="120" height="120" rx="18" ry="18" fill="#000000" stroke="#000000" stroke-width="1.5" pointer-events="none" transform="translate(2,3)" opacity="0.25"/><rect x="391" y="350" width="120" height="120" rx="18" ry="18" fill="#ffebee" stroke="#dd344c" stroke-width="1.5" pointer-events="none"/><g transform="translate(-0.5 -0.5)"><switch><foreignObject pointer-events="none" width="100%" height="100%" requiredFeatures="http://www.w3.org/TR/SVG11/feature#Extensibility" style="overflow: visible; text-align: left;"><div xmlns="http://www.w3.org/1999/xhtml" style="display: flex; align-items: unsafe flex-start; justify-content: unsafe center; width: 118px; height: 1px; padding-top: 357px; margin-left: 392px;"><div data-drawio-colors="color: #DD344C; " style="box-sizing: border-box; font-size: 0px; text-align: center;"><div style="display: inline-block; font-size: 12px; font-family: Helvetica; color: rgb(221, 52, 76); line-height: 1.2; pointer-events: none; font-weight: bold; white-space: normal; overflow-wrap: normal;">Share</div></div></div></foreignObject><text x="451" y="369" fill="#DD344C" font-family="Helvetica" font-size="12px" text-anchor="middle" font-weight="bold">Share</text></switch></g><path d="M 427 380 L 475 380 L 475 428 L 427 428 Z" fill="#000000" stroke="none" pointer-events="none" transform="translate(2,3)" opacity="0.25"/><path d="M 427 380 L 475 380 L 475 428 L 427 428 Z" fill="#dd344c" stroke="none" pointer-events="none"/><path d="M 446.2 417.71 C 446.2 417.34 445.89 417.03 445.51 417.03 C 445.14 417.03 444.83 417.34 444.83 417.71 C 444.83 418.09 445.14 418.4 445.51 418.4 C 445.89 418.4 446.2 418.09 446.2 417.71 Z M 447.57 417.71 C 447.57 418.85 446.65 419.77 445.51 419.77 C 444.38 419.77 443.46 418.85 443.46 417.71 C 443.46 416.58 444.38 415.66 445.51 415.66 C 446.65 415.66 447.57 416.58 447.57 417.71 Z M 460.9 418.29 L 459.63 417.03 L 450.12 417.03 C 449.81 417.03 449.54 416.83 449.46 416.54 C 448.94 414.81 447.32 413.6 445.51 413.6 C 443.25 413.6 441.4 415.45 441.4 417.71 C 441.4 419.98 443.25 421.83 445.51 421.83 C 447.1 421.83 448.55 420.91 449.23 419.48 C 449.35 419.24 449.59 419.09 449.85 419.09 L 451.69 419.09 C 451.87 419.09 452.04 419.16 452.17 419.29 L 453.06 420.17 L 453.94 419.29 C 454.07 419.16 454.25 419.09 454.43 419.09 L 455.8 419.09 C 455.98 419.09 456.16 419.16 456.28 419.29 L 457.17 420.17 L 458.06 419.29 C 458.19 419.16 458.36 419.09 458.54 419.09 L 459.71 419.09 Z M 462.46 417.92 C 462.6 418.06 462.67 418.26 462.65 418.47 C 462.63 418.67 462.52 418.86 462.35 418.97 L 460.29 420.34 C 460.18 420.42 460.05 420.46 459.91 420.46 L 458.83 420.46 L 457.66 421.63 C 457.39 421.9 456.95 421.9 456.69 421.63 L 455.52 420.46 L 454.71 420.46 L 453.54 421.63 C 453.27 421.9 452.84 421.9 452.57 421.63 L 451.4 420.46 L 450.27 420.46 C 449.29 422.14 447.47 423.2 445.51 423.2 C 442.49 423.2 440.03 420.74 440.03 417.71 C 440.03 414.69 442.49 412.23 445.51 412.23 C 447.75 412.23 449.77 413.62 450.6 415.66 L 459.91 415.66 C 460.1 415.66 460.27 415.73 460.4 415.86 Z M 456.08 393.71 L 459.91 397.54 L 463.74 393.71 L 459.91 389.88 Z M 459.43 399 L 454.63 394.2 C 454.36 393.93 454.36 393.5 454.63 393.23 L 459.43 388.43 C 459.7 388.16 460.13 388.16 460.4 388.43 L 465.2 393.23 C 465.47 393.5 465.47 393.93 465.2 394.2 L 460.4 399 C 460.27 399.13 460.09 399.2 459.91 399.2 C 459.74 399.2 459.56 399.13 459.43 399 Z M 446.95 396.46 L 442.77 390.76 L 438.63 396.46 Z M 448.3 397.83 L 437.29 397.83 C 437.03 397.83 436.79 397.68 436.67 397.45 C 436.56 397.22 436.58 396.95 436.73 396.74 L 442.22 389.2 C 442.35 389.02 442.55 388.91 442.77 388.91 C 443.01 388.9 443.2 389.02 443.32 389.19 L 448.85 396.74 C 449.01 396.95 449.03 397.22 448.91 397.45 C 448.79 397.68 448.56 397.83 448.3 397.83 Z M 438.66 405.71 C 438.66 407.79 440.35 409.49 442.43 409.49 C 444.51 409.49 446.2 407.79 446.2 405.71 C 446.2 403.63 444.51 401.94 442.43 401.94 C 440.35 401.94 438.66 403.63 438.66 405.71 Z M 437.29 405.71 C 437.29 402.88 439.59 400.57 442.43 400.57 C 445.26 400.57 447.57 402.88 447.57 405.71 C 447.57 408.55 445.26 410.86 442.43 410.86 C 439.59 410.86 437.29 408.55 437.29 405.71 Z M 456.49 408.8 L 462.66 408.8 L 462.66 402.63 L 456.49 402.63 Z M 464.03 409.49 C 464.03 409.86 463.72 410.17 463.34 410.17 L 455.8 410.17 C 455.42 410.17 455.11 409.86 455.11 409.49 L 455.11 401.94 C 455.11 401.56 455.42 401.26 455.8 401.26 L 463.34 401.26 C 463.72 401.26 464.03 401.56 464.03 401.94 Z M 470.2 385.49 L 470.2 419.77 C 470.2 420.15 469.89 420.46 469.51 420.46 L 464.03 420.46 L 464.03 419.09 L 468.83 419.09 L 468.83 386.17 L 433.17 386.17 L 433.17 419.09 L 437.97 419.09 L 437.97 420.46 L 432.49 420.46 C 432.11 420.46 431.8 420.15 431.8 419.77 L 431.8 385.49 C 431.8 385.11 432.11 384.8 432.49 384.8 L 469.51 384.8 C 469.89 384.8 470.2 385.11 470.2 385.49 Z" fill="#ffffff" stroke="none" pointer-events="none"/><g transform="translate(-0.5 -0.5)"><switch><foreignObject pointer-events="none" width="100%" height="100%" requiredFeatures="http://www.w3.org/TR/SVG11/feature#Extensibility" style="overflow: visible; text-align: left;"><div xmlns="http://www.w3.org/1999/xhtml" style="display: flex; align-items: unsafe flex-start; justify-content: unsafe center; width: 1px; height: 1px; padding-top: 435px; margin-left: 451px;"><div data-drawio-colors="color: #232F3E; " style="box-sizing: border-box; font-size: 0px; text-align: center;"><div style="display: inline-block; font-size: 10px; font-family: Helvetica; color: rgb(35, 47, 62); line-height: 1.2; pointer-events: none; white-space: nowrap;">AWS RAM<div><i>cross-account</i></div></div></div></div></foreignObject><text x="451" y="445" fill="#232F3E" font-family="Helvetica" font-size="10px" text-anchor="middle">AWS RAM...</text></switch></g><rect x="601" y="110" width="500" height="360" rx="54" ry="54" fill="#000000" stroke="#000000" pointer-events="none" transform="translate(2,3)" opacity="0.25"/><rect x="601" y="110" width="500" height="360" rx="54" ry="54" fill="#f5f5f5" stroke="light-dark(#666666,#d4d4d4)" pointer-events="none"/><g transform="translate(-0.5 -0.5)"><switch><foreignObject pointer-events="none" width="100%" height="100%" requiredFeatures="http://www.w3.org/TR/SVG11/feature#Extensibility" style="overflow: visible; text-align: left;"><div xmlns="http://www.w3.org/1999/xhtml" style="display: flex; align-items: unsafe flex-start; justify-content: unsafe center; width: 498px; height: 1px; padding-top: 117px; margin-left: 602px;"><div data-drawio-colors="color: #333333; " style="box-sizing: border-box; font-size: 0px; text-align: center;"><div style="display: inline-block; font-size: 12px; font-family: Helvetica; color: rgb(51, 51, 51); line-height: 1.2; pointer-events: none; font-weight: bold; white-space: normal; overflow-wrap: normal;">shared-services · 10.12.0.0/16</div></div></div></foreignObject><text x="851" y="129" fill="#333333" font-family="Helvetica" font-size="12px" text-anchor="middle" font-weight="bold">shared-services · 10.12.0.0/16</text></switch></g><rect x="621" y="150" width="460" height="300" rx="45" ry="45" fill="light-dark(#8c4fff0d,#8c4fff0d)" stroke="#8c4fff" pointer-events="none"/><g transform="translate(-0.5 -0.5)"><switch><foreignObject pointer-events="none" width="100%" height="100%" requiredFeatures="http://www.w3.org/TR/SVG11/feature#Extensibility" style="overflow: visible; text-align: left;"><div xmlns="http://www.w3.org/1999/xhtml" style="display: flex; align-items: unsafe flex-start; justify-content: unsafe center; width: 458px; height: 1px; padding-top: 157px; margin-left: 622px;"><div data-drawio-colors="color: #8C4FFF; " style="box-sizing: border-box; font-size: 0px; text-align: center;"><div style="display: inline-block; font-size: 12px; font-family: Helvetica; color: rgb(140, 79, 255); line-height: 1.2; pointer-events: none; font-weight: bold; white-space: normal; overflow-wrap: normal;">Shared-services VPC</div></div></div></foreignObject><text x="851" y="169" fill="#8C4FFF" font-family="Helvetica" font-size="12px" text-anchor="middle" font-weight="bold">Shared-services VPC</text></switch></g><rect x="721" y="240" width="120" height="120" rx="18" ry="18" fill="#000000" stroke="#000000" stroke-width="1.5" pointer-events="none" transform="translate(2,3)" opacity="0.25"/><rect x="721" y="240" width="120" height="120" rx="18" ry="18" fill="#ede7f6" stroke="#8c4fff" stroke-width="1.5" pointer-events="none"/><g transform="translate(-0.5 -0.5)"><switch><foreignObject pointer-events="none" width="100%" height="100%" requiredFeatures="http://www.w3.org/TR/SVG11/feature#Extensibility" style="overflow: visible; text-align: left;"><div xmlns="http://www.w3.org/1999/xhtml" style="display: flex; align-items: unsafe flex-start; justify-content: unsafe center; width: 118px; height: 1px; padding-top: 247px; margin-left: 722px;"><div data-drawio-colors="color: #8C4FFF; " style="box-sizing: border-box; font-size: 0px; text-align: center;"><div style="display: inline-block; font-size: 12px; font-family: Helvetica; color: rgb(140, 79, 255); line-height: 1.2; pointer-events: none; font-weight: bold; white-space: normal; overflow-wrap: normal;">Target</div></div></div></foreignObject><text x="781" y="259" fill="#8C4FFF" font-family="Helvetica" font-size="12px" text-anchor="middle" font-weight="bold">Target</text></switch></g><path d="M 781 270 C 767.77 270 757 280.77 757 294 C 757 307.23 767.77 318 781 318 C 794.23 318 805 307.23 805 294 C 805 280.77 794.23 270 781 270 Z M 781 315.82 C 768.97 315.82 759.18 306.03 759.18 294 C 759.18 281.97 768.97 272.18 781 272.18 C 793.03 272.18 802.82 281.97 802.82 294 C 802.82 306.03 793.03 315.82 781 315.82 Z M 795.22 300.55 L 793.55 300.55 L 793.55 296.86 C 793.55 296.26 793.06 295.77 792.45 295.77 L 789.73 295.77 L 789.73 292.09 C 789.73 291.49 789.24 291 788.64 291 L 782.09 291 L 782.09 288.41 L 788.64 288.41 C 789.24 288.41 789.73 287.92 789.73 287.32 L 789.73 278.73 C 789.73 278.12 789.24 277.64 788.64 277.64 L 773.36 277.64 C 772.76 277.64 772.27 278.12 772.27 278.73 L 772.27 287.32 C 772.27 287.92 772.76 288.41 773.36 288.41 L 779.91 288.41 L 779.91 291 L 773.36 291 C 772.76 291 772.27 291.49 772.27 292.09 L 772.27 295.77 L 769.55 295.77 C 768.94 295.77 768.46 296.26 768.46 296.86 L 768.46 300.55 L 766.78 300.55 C 766.18 300.55 765.69 301.03 765.69 301.64 L 765.69 306.41 C 765.69 307.01 766.18 307.5 766.78 307.5 L 771.46 307.5 C 772.06 307.5 772.55 307.01 772.55 306.41 L 772.55 301.64 C 772.55 301.03 772.06 300.55 771.46 300.55 L 770.64 300.55 L 770.64 297.95 L 775.14 297.95 L 775.14 300.55 L 774.32 300.55 C 773.72 300.55 773.23 301.03 773.23 301.64 L 773.23 306.41 C 773.23 307.01 773.72 307.5 774.32 307.5 L 779.09 307.5 C 779.69 307.5 780.18 307.01 780.18 306.41 L 780.18 301.64 C 780.18 301.03 779.69 300.55 779.09 300.55 L 777.32 300.55 L 777.32 296.86 C 777.32 296.26 776.83 295.77 776.23 295.77 L 774.46 295.77 L 774.46 293.18 L 787.55 293.18 L 787.55 295.77 L 785.77 295.77 C 785.17 295.77 784.68 296.26 784.68 296.86 L 784.68 300.55 L 782.91 300.55 C 782.31 300.55 781.82 301.03 781.82 301.64 L 781.82 306.41 C 781.82 307.01 782.31 307.5 782.91 307.5 L 787.68 307.5 C 788.28 307.5 788.77 307.01 788.77 306.41 L 788.77 301.64 C 788.77 301.03 788.28 300.55 787.68 300.55 L 786.86 300.55 L 786.86 297.95 L 791.36 297.95 L 791.36 300.55 L 790.48 300.55 C 789.88 300.55 789.39 301.03 789.39 301.64 L 789.39 306.41 C 789.39 307.01 789.88 307.5 790.48 307.5 L 795.22 307.5 C 795.82 307.5 796.31 307.01 796.31 306.41 L 796.31 301.64 C 796.31 301.03 795.82 300.55 795.22 300.55 Z M 774.46 286.23 L 774.46 279.82 L 787.55 279.82 L 787.55 286.23 Z M 767.87 305.32 L 767.87 302.73 L 770.36 302.73 L 770.36 305.32 Z M 775.41 305.32 L 775.41 302.73 L 778 302.73 L 778 305.32 Z M 784 305.32 L 784 302.73 L 786.59 302.73 L 786.59 305.32 Z M 791.57 305.32 L 791.57 302.73 L 794.13 302.73 L 794.13 305.32 Z" fill="#8c4fff" stroke="none" pointer-events="none"/><g transform="translate(-0.5 -0.5)"><switch><foreignObject pointer-events="none" width="100%" height="100%" requiredFeatures="http://www.w3.org/TR/SVG11/feature#Extensibility" style="overflow: visible; text-align: left;"><div xmlns="http://www.w3.org/1999/xhtml" style="display: flex; align-items: unsafe flex-start; justify-content: unsafe center; width: 1px; height: 1px; padding-top: 325px; margin-left: 781px;"><div data-drawio-colors="color: #232F3E; " style="box-sizing: border-box; font-size: 0px; text-align: center;"><div style="display: inline-block; font-size: 10px; font-family: Helvetica; color: rgb(35, 47, 62); line-height: 1.2; pointer-events: none; white-space: nowrap;">ALB<div><i>Lattice target</i></div></div></div></div></foreignObject><text x="781" y="335" fill="#232F3E" font-family="Helvetica" font-size="10px" text-anchor="middle">ALB...</text></switch></g><rect x="921" y="240" width="120" height="120" rx="18" ry="18" fill="#000000" stroke="#000000" stroke-width="1.5" pointer-events="none" transform="translate(2,3)" opacity="0.25"/><rect x="921" y="240" width="120" height="120" rx="18" ry="18" fill="#fff2e8" stroke="#ed7100" stroke-width="1.5" pointer-events="none"/><g transform="translate(-0.5 -0.5)"><switch><foreignObject pointer-events="none" width="100%" height="100%" requiredFeatures="http://www.w3.org/TR/SVG11/feature#Extensibility" style="overflow: visible; text-align: left;"><div xmlns="http://www.w3.org/1999/xhtml" style="display: flex; align-items: unsafe flex-start; justify-content: unsafe center; width: 118px; height: 1px; padding-top: 247px; margin-left: 922px;"><div data-drawio-colors="color: #ED7100; " style="box-sizing: border-box; font-size: 0px; text-align: center;"><div style="display: inline-block; font-size: 12px; font-family: Helvetica; color: rgb(237, 113, 0); line-height: 1.2; pointer-events: none; font-weight: bold; white-space: normal; overflow-wrap: normal;">API</div></div></div></foreignObject><text x="981" y="259" fill="#ED7100" font-family="Helvetica" font-size="12px" text-anchor="middle" font-weight="bold">API</text></switch></g><path d="M 957 270 L 1005 270 L 1005 318 L 957 318 Z" fill="#000000" stroke="none" pointer-events="none" transform="translate(2,3)" opacity="0.25"/><path d="M 957 270 L 1005 270 L 1005 318 L 957 318 Z" fill="#ed7100" stroke="none" pointer-events="none"/><path d="M 972.09 302.91 L 989.23 302.91 L 989.23 285.77 L 972.09 285.77 Z M 990.6 285.77 L 993.34 285.77 L 993.34 287.14 L 990.6 287.14 L 990.6 289.89 L 993.34 289.89 L 993.34 291.26 L 990.6 291.26 L 990.6 293.31 L 993.34 293.31 L 993.34 294.69 L 990.6 294.69 L 990.6 297.43 L 993.34 297.43 L 993.34 298.8 L 990.6 298.8 L 990.6 301.54 L 993.34 301.54 L 993.34 302.91 L 990.6 302.91 L 990.6 303.01 C 990.6 303.71 990.03 304.29 989.32 304.29 L 989.23 304.29 L 989.23 307.03 L 987.86 307.03 L 987.86 304.29 L 985.11 304.29 L 985.11 307.03 L 983.74 307.03 L 983.74 304.29 L 981.69 304.29 L 981.69 307.03 L 980.31 307.03 L 980.31 304.29 L 977.57 304.29 L 977.57 307.03 L 976.2 307.03 L 976.2 304.29 L 973.46 304.29 L 973.46 307.03 L 972.09 307.03 L 972.09 304.29 L 971.99 304.29 C 971.29 304.29 970.71 303.71 970.71 303.01 L 970.71 302.91 L 968.66 302.91 L 968.66 301.54 L 970.71 301.54 L 970.71 298.8 L 968.66 298.8 L 968.66 297.43 L 970.71 297.43 L 970.71 294.69 L 968.66 294.69 L 968.66 293.31 L 970.71 293.31 L 970.71 291.26 L 968.66 291.26 L 968.66 289.89 L 970.71 289.89 L 970.71 287.14 L 968.66 287.14 L 968.66 285.77 L 970.71 285.77 L 970.71 285.68 C 970.71 284.97 971.29 284.4 971.99 284.4 L 972.09 284.4 L 972.09 281.66 L 973.46 281.66 L 973.46 284.4 L 976.2 284.4 L 976.2 281.66 L 977.57 281.66 L 977.57 284.4 L 980.31 284.4 L 980.31 281.66 L 981.69 281.66 L 981.69 284.4 L 983.74 284.4 L 983.74 281.66 L 985.11 281.66 L 985.11 284.4 L 987.86 284.4 L 987.86 281.66 L 989.23 281.66 L 989.23 284.4 L 989.32 284.4 C 990.03 284.4 990.6 284.97 990.6 285.68 Z M 981.69 311.74 C 981.69 311.79 981.65 311.83 981.6 311.83 L 963.26 311.83 C 963.21 311.83 963.17 311.79 963.17 311.74 L 963.17 293.4 C 963.17 293.35 963.21 293.31 963.26 293.31 L 967.29 293.31 L 967.29 291.94 L 963.26 291.94 C 962.45 291.94 961.8 292.6 961.8 293.4 L 961.8 311.74 C 961.8 312.55 962.45 313.2 963.26 313.2 L 981.6 313.2 C 982.4 313.2 983.06 312.55 983.06 311.74 L 983.06 308.4 L 981.69 308.4 Z M 1000.2 276.26 L 1000.2 294.6 C 1000.2 295.4 999.55 296.06 998.74 296.06 L 994.71 296.06 L 994.71 294.69 L 998.74 294.69 C 998.79 294.69 998.83 294.65 998.83 294.6 L 998.83 276.26 C 998.83 276.21 998.79 276.17 998.74 276.17 L 980.4 276.17 C 980.35 276.17 980.31 276.21 980.31 276.26 L 980.31 280.29 L 978.94 280.29 L 978.94 276.26 C 978.94 275.45 979.6 274.8 980.4 274.8 L 998.74 274.8 C 999.55 274.8 1000.2 275.45 1000.2 276.26 Z" fill="#ffffff" stroke="none" pointer-events="none"/><g transform="translate(-0.5 -0.5)"><switch><foreignObject pointer-events="none" width="100%" height="100%" requiredFeatures="http://www.w3.org/TR/SVG11/feature#Extensibility" style="overflow: visible; text-align: left;"><div xmlns="http://www.w3.org/1999/xhtml" style="display: flex; align-items: unsafe flex-start; justify-content: unsafe center; width: 1px; height: 1px; padding-top: 325px; margin-left: 981px;"><div data-drawio-colors="color: #232F3E; " style="box-sizing: border-box; font-size: 0px; text-align: center;"><div style="display: inline-block; font-size: 10px; font-family: Helvetica; color: rgb(35, 47, 62); line-height: 1.2; pointer-events: none; white-space: nowrap;">Amazon EC2<div><i>pattern=lattice</i></div></div></div></div></foreignObject><text x="981" y="335" fill="#232F3E" font-family="Helvetica" font-size="10px" text-anchor="middle">Amazon EC...</text></switch></g><path d="M 185 294 L 296 294 Q 306 294 306 284 L 306 264 Q 306 254 316 254 L 419.7 254" fill="none" stroke="#545b64" stroke-width="1.5" stroke-miterlimit="10" pointer-events="none"/><path d="M 425.32 254 L 417.82 257.75 L 419.7 254 L 417.82 250.25 Z" fill="#545b64" stroke="#545b64" stroke-width="1.5" stroke-miterlimit="10" pointer-events="none"/><g transform="translate(-0.5 -0.5)"><switch><foreignObject pointer-events="none" width="100%" height="100%" requiredFeatures="http://www.w3.org/TR/SVG11/feature#Extensibility" style="overflow: visible; text-align: left;"><div xmlns="http://www.w3.org/1999/xhtml" style="display: flex; align-items: unsafe center; justify-content: unsafe center; width: 1px; height: 1px; padding-top: 279px; margin-left: 262px;"><div data-drawio-colors="color: #0073BB; background-color: #FFFFFF; " style="box-sizing: border-box; font-size: 0px; text-align: center;"><div style="display: inline-block; font-size: 11px; font-family: Helvetica; color: rgb(0, 115, 187); line-height: 1.2; pointer-events: none; background-color: rgb(255, 255, 255); white-space: nowrap;">service DNS</div></div></div></foreignObject><text x="262" y="282" fill="#0073BB" font-family="Helvetica" font-size="11px" text-anchor="middle">service DNS</text></switch></g><path d="M 475 254 L 606 254 Q 616 254 616 264 L 616 284 Q 616 294 626 294 L 749.7 294" fill="none" stroke="#545b64" stroke-width="1.5" stroke-miterlimit="10" pointer-events="none"/><path d="M 755.32 294 L 747.82 297.75 L 749.7 294 L 747.82 290.25 Z" fill="#545b64" stroke="#545b64" stroke-width="1.5" stroke-miterlimit="10" pointer-events="none"/><path d="M 805 294 L 949.7 294" fill="none" stroke="#545b64" stroke-width="1.5" stroke-miterlimit="10" pointer-events="none"/><path d="M 955.32 294 L 947.82 297.75 L 949.7 294 L 947.82 290.25 Z" fill="#545b64" stroke="#545b64" stroke-width="1.5" stroke-miterlimit="10" pointer-events="none"/></g><switch><g requiredFeatures="http://www.w3.org/TR/SVG11/feature#Extensibility"/><a transform="translate(0,-5)" xlink:href="https://www.diagrams.net/doc/faq/svg-export-text-problems" target="_blank"><text text-anchor="middle" font-size="10px" x="50%" y="100%">Text is not SVG - cannot display</text></a></switch></svg>