<svg xmlns="http://www.w3.org/2000/svg" xmlns:xlink="http://www.w3.org/1999/xlink" version="1.1" width="1124px" height="514px" viewBox="-0.5 -0.5 1124 514" content="&lt;mxfile&gt;&lt;diagram id=&quot;privatelink&quot; name=&quot;privatelink&quot;&gt;7Vtbb+I6EP41SLsPRblx6SPX3ZU4R5W6Ovu4chMTfGriKDFQ9tefceIkOHZTaNNyigB2G8b3b2a+sSeh407WT98SFK/+YgGmHccKnjrutOM4ttdz4Y+Q7KXEdm5zSZiQQMoqwT35g6XQktINCXCqVOSMUU5iVeizKMI+V2QoSdhOrbZkVB01RiHWBPc+orr0Fwn4Skody6oKvmMSruTQfUcWrFFRWQrSFQrY7kDkzjruJGGM51frpwmmAr0Cl7zd/JnScmIJjvgxDTjhFN+ECdvEedMtohu5SjlDvi+WnVdzx0sW8TlaEyr09x3TLebER1Cgj64qAj0UXcnlb3HC8dNBVTnLb5itMU/2UEWWerKFNJmig90B/HYhXB1AP5S2hqTKw7LnChW4kMA0gQQT5RpGdwnZIo4XJHqEgi8L76uGWtbOHa/4Gvqf2nCJKAkjuKZ4KUoECIAfHUkxZwXI0vKdYfFd9mqfpgRdyS/DfgDsrWXAtdDHW3BNNw8N0P6IOE6WyMcgxlEQMwLrARXPnM6w37kVtf9ejGsSIhpFSIwy0gpHdz+EBD6DSX7xAwwTFjAShb/uxf+JvyIcTHWT4LK8fY3aXpMGRcGEUZZkw7k9rzfue61pdq8q8CVFO15bDpTiIziGkgiuxilP2GNJro6Kdl54gNB8fivm/u5OIaEbmMjHhJ3dgpMg378J8FZDLpNZUMo2uV9MnM54ABe21XXsrtWFsed2XwN4SSg9gG7ZE28NVCoWcROg5PELVOpnr44Dk3Wnnnh/hRYAXRTgQCplJ/zmPhb+6k53EPhVnTW4RI3UChdxdE/IX016Bn/lCEwokR36jFIUpyQPPMJEyohra2ZmN4WwV4cq29XNxR0aKbUFc9nGZnOZAJFt1oCLY/1zN2m0ClX3w4k3n8+taa794ttXkxvmhUI90FuhVrTh7CzGUs3m9caiW4PqjkfbhKPahIF8Xc9gEm4bYTaE+Jrq8XVCiVjVC/wAEDqzoUnbs+nAzkj341VbDv1OPNDtGXWv+tZrdV9Gip1ydDBED6cF5ROz8kdr9IdFIJtB2HD6VOxaAgJL64c8W3suIoUg7wS2VylHkdiS5eUwOqm3AZnSU82+0kfM/ZVUQrapy1bXG8MH1jvJ//UyvgFJ1+kZhCbZQBfaejX4Y5tGqAtNsoEutPVq4lsxa1Vokg16+ozrrW1Da7vWGj7umG242D9NymOvpfsOvOfCVMY1Ry99SnP0ZfYSBoLSVebn1oEjL9ADpncsJZww4dAPjHO2ftbTi52yj8VOXeWGQ6+3aqwgvqM0zpe1JE9iHsKHY1G4fgpFpqGLdqnXTXDKNomPxd5dsBNO8yu1FvadJv5Q2EFnAoVSjyYCt68QgWFf4A0N24JhGyEAuAtrLDArj1XNQWA2nQ3m/caQ/znj+0cGgfNGAaP+s52gVVnBy3GAVIfydiLASZQF/huITUtRFrHssFiz1tIwVGuVlf93JJZhj5PZFueh0H6O2MokyEnnXMX1PwVVxdR0ehHmQbaE769kdTxZnX52Hag0Zcx1vCNNGXSfJ+aUROvLPHWQMExxsiXXLesFblmfIfpL3bICj/+Oczegwg3esn0t/ewTRASRcklTjRdgjQkObqR7p7UUqH1Ngb4qkLQTRvpH5EB7pjDSWg7UYDD3msFcM6FvzISWKLeYCPVMufGWEqERfdDMYuHB94Ue9a/bysYz8CtU3zvrCdik++wG8su7yZ/foBnfx+KWMBLdXM++H3z2jTDfseTxN2Uo+P2AqEhCJ6cehCsL+AS7nvAGmchqcCWrDyEre3hetjIpf3QcW1XPwFxp6oNpCsUxhbmIKb6NqtAno6pYf7Qne9rqenP5fWnKdc9MUybFn3hvOUZcEBY0PsxuXNN1l5auu95hPilFV7nWJwgB2NbcEAchLrBlCV+xkMGmZFZJa9xe1VkwochM+C/mfC81JvMnTQ+Clo/Kmjj39MfWczUXXFfd8ucoCTEv5NX9NbHkRj0lmMLmYIuVUd6G+41+x+T7z593Ih3qjopUSk0tmUd1jE8wl15Td641CYJcazglf1AV61SGFSRBRfdj5D+GmYbVgF8dAQpHbHyavcYtljVwx2OjzgoTfMNvDY5Wj2x6J28xFVXYcplirumvHOE4lTqX70qVy6iuVNyWOIMjuZePeoGuinmZFTkD6N7lg17Cq6KOzoh67/JRR8+gXuyp3h11+Fr9ii+PAtWPId3Zfw==&lt;/diagram&gt;&lt;/mxfile&gt;"><defs/>
<style>
@media (prefers-color-scheme: dark) {
  /* Account container fills */
  rect[fill="#f5f5f5"] { fill: #2a2a3e !important; }
  /* Account container strokes */
  rect[stroke="light-dark(#666666,#d4d4d4)"] { stroke: #555577 !important; }
  /* VPC container fills */
  rect[fill="light-dark(#8c4fff0d,#8c4fff0d)"] { fill: rgba(140,79,255,0.1) !important; }
  /* Drop shadows - darken for dark mode */
  [transform*="translate(2,3)"][opacity="0.25"] { opacity: 0.5 !important; }
  /* Purple group box fills */
  rect[fill="#ede7f6"] { fill: #2d2350 !important; }
  /* Orange group box fills */
  rect[fill="#fff2e8"] { fill: #3d2a18 !important; }
  /* Red group box fills */
  rect[fill="#ffebee"] { fill: #3d1a22 !important; }
  /* Edge label background rects */
  rect[fill="#ffffff"] { fill: #2a2a3e !important; }
  /* Edge lines */
  path[stroke="#545b64"] { stroke: #8899aa !important; }
  /* Title text - dark to light */
  text[fill="rgb(0, 0, 0)"] { fill: #e8e8f0; }
  /* Subtitle text */
  text[fill="#545B64"], text[fill="#545b64"] { fill: #9aa8b8; }
  /* Account label text */
  text[fill="#333333"] { fill: #d0d0e0; }
  /* Icon description text */
  text[fill="#232F3E"] { fill: #c8d0d8; }
  /* Edge label text */
  text[fill="#0073BB"] { fill: #4db8ff; }
  /* VPC label text - brighter purple */
  text[fill="#8C4FFF"] { fill: #b088ff; }
  /* Compute label text - brighter orange */
  text[fill="#ED7100"] { fill: #ff9933; }
  /* Security label text - brighter red */
  text[fill="#DD344C"] { fill: #ff5577; }
  /* foreignObject text color overrides */
  [data-drawio-colors*="color: rgb(0, 0, 0)"] div { color: #e8e8f0 !important; }
  [data-drawio-colors*="color: #333333"] div { color: #d0d0e0 !important; }
  [data-drawio-colors*="color: #232F3E"] div { color: #c8d0d8 !important; }
  [data-drawio-colors*="color: #545B64"] div { color: #9aa8b8 !important; }
  [data-drawio-colors*="color: #8C4FFF"] div { color: #b088ff !important; }
  [data-drawio-colors*="color: #ED7100"] div { color: #ff9933 !important; }
  [data-drawio-colors*="color: #DD344C"] div { color: #ff5577 !important; }
  [data-drawio-colors*="color: #0073BB"] div { color: #4db8ff !important; }
}
</style><g><g transform="translate(-0.5 -0.5)"><switch><foreignObject pointer-events="none" width="100%" height="100%" requiredFeatures="http://www.w3.org/TR/SVG11/feature#Extensibility" style="overflow: visible; text-align: left;"><div xmlns="http://www.w3.org/1999/xhtml" style="display: flex; align-items: unsafe flex-start; justify-content: unsafe flex-start; width: 1px; height: 1px; padding-top: 7px; margin-left: 3px;"><div data-drawio-colors="color: rgb(0, 0, 0); " style="box-sizing: border-box; font-size: 0px; text-align: left;"><div style="display: inline-block; font-size: 28px; font-family: Helvetica; color: rgb(0, 0, 0); line-height: 1.2; pointer-events: none; font-weight: bold; white-space: nowrap;">PrivateLink (L4)</div></div></div></foreignObject><text x="3" y="35" fill="rgb(0, 0, 0)" font-family="Helvetica" font-size="28px" font-weight="bold">PrivateLink (L4)</text></switch></g><g transform="translate(-0.5 -0.5)"><switch><foreignObject pointer-events="none" width="100%" height="100%" requiredFeatures="http://www.w3.org/TR/SVG11/feature#Extensibility" style="overflow: visible; text-align: left;"><div xmlns="http://www.w3.org/1999/xhtml" style="display: flex; align-items: unsafe flex-start; justify-content: unsafe flex-start; width: 1px; height: 1px; padding-top: 47px; margin-left: 3px;"><div data-drawio-colors="color: #545B64; " style="box-sizing: border-box; font-size: 0px; text-align: left;"><div style="display: inline-block; font-size: 14px; font-family: Helvetica; color: rgb(84, 91, 100); line-height: 1.2; pointer-events: none; white-space: nowrap;">Interface endpoint → NLB → internal ALB → API  |  Icons: AWS Architecture Icons</div></div></div></foreignObject><text x="3" y="61" fill="#545B64" font-family="Helvetica" font-size="14px">Interface endpoint → NLB → internal ALB → API  |  Icons: AWS Architecture Icons</text></switch></g><path d="M 1 75 L 1101 75" fill="none" stroke="#ff9900" stroke-width="2" stroke-miterlimit="10" pointer-events="none"/><rect x="1" y="110" width="380" height="400" rx="57" ry="57" fill="#000000" stroke="#000000" pointer-events="none" transform="translate(2,3)" opacity="0.25"/><rect x="1" y="110" width="380" height="400" rx="57" ry="57" fill="#f5f5f5" stroke="light-dark(#666666,#d4d4d4)" pointer-events="none"/><g transform="translate(-0.5 -0.5)"><switch><foreignObject pointer-events="none" width="100%" height="100%" requiredFeatures="http://www.w3.org/TR/SVG11/feature#Extensibility" style="overflow: visible; text-align: left;"><div xmlns="http://www.w3.org/1999/xhtml" style="display: flex; align-items: unsafe flex-start; justify-content: unsafe center; width: 378px; height: 1px; padding-top: 117px; margin-left: 2px;"><div data-drawio-colors="color: #333333; " style="box-sizing: border-box; font-size: 0px; text-align: center;"><div style="display: inline-block; font-size: 12px; font-family: Helvetica; color: rgb(51, 51, 51); line-height: 1.2; pointer-events: none; font-weight: bold; white-space: normal; overflow-wrap: normal;">dev account · 10.21.0.0/16</div></div></div></foreignObject><text x="191" y="129" fill="#333333" font-family="Helvetica" font-size="12px" text-anchor="middle" font-weight="bold">dev account · 10.21.0.0/16</text></switch></g><rect x="21" y="150" width="340" height="340" rx="51" ry="51" fill="light-dark(#8c4fff0d,#8c4fff0d)" stroke="#8c4fff" pointer-events="none"/><g transform="translate(-0.5 -0.5)"><switch><foreignObject pointer-events="none" width="100%" height="100%" requiredFeatures="http://www.w3.org/TR/SVG11/feature#Extensibility" style="overflow: visible; text-align: left;"><div xmlns="http://www.w3.org/1999/xhtml" style="display: flex; align-items: unsafe flex-start; justify-content: unsafe center; width: 338px; height: 1px; padding-top: 157px; margin-left: 22px;"><div data-drawio-colors="color: #8C4FFF; " style="box-sizing: border-box; font-size: 0px; text-align: center;"><div style="display: inline-block; font-size: 12px; font-family: Helvetica; color: rgb(140, 79, 255); line-height: 1.2; pointer-events: none; font-weight: bold; white-space: normal; overflow-wrap: normal;">Consumer VPC</div></div></div></foreignObject><text x="191" y="169" fill="#8C4FFF" font-family="Helvetica" font-size="12px" text-anchor="middle" font-weight="bold">Consumer VPC</text></switch></g><rect x="41" y="250" width="120" height="120" rx="18" ry="18" fill="#000000" stroke="#000000" stroke-width="1.5" pointer-events="none" transform="translate(2,3)" opacity="0.25"/><rect x="41" y="250" width="120" height="120" rx="18" ry="18" fill="#fff2e8" stroke="#ed7100" stroke-width="1.5" pointer-events="none"/><g transform="translate(-0.5 -0.5)"><switch><foreignObject pointer-events="none" width="100%" height="100%" requiredFeatures="http://www.w3.org/TR/SVG11/feature#Extensibility" style="overflow: visible; text-align: left;"><div xmlns="http://www.w3.org/1999/xhtml" style="display: flex; align-items: unsafe flex-start; justify-content: unsafe center; width: 118px; height: 1px; padding-top: 257px; margin-left: 42px;"><div data-drawio-colors="color: #ED7100; " style="box-sizing: border-box; font-size: 0px; text-align: center;"><div style="display: inline-block; font-size: 12px; font-family: Helvetica; color: rgb(237, 113, 0); line-height: 1.2; pointer-events: none; font-weight: bold; white-space: normal; overflow-wrap: normal;">Client</div></div></div></foreignObject><text x="101" y="269" fill="#ED7100" font-family="Helvetica" font-size="12px" text-anchor="middle" font-weight="bold">Client</text></switch></g><path d="M 77 280 L 125 280 L 125 328 L 77 328 Z" fill="#000000" stroke="none" pointer-events="none" transform="translate(2,3)" opacity="0.25"/><path d="M 77 280 L 125 280 L 125 328 L 77 328 Z" fill="#ed7100" stroke="none" pointer-events="none"/><path d="M 92.09 312.91 L 109.23 312.91 L 109.23 295.77 L 92.09 295.77 Z M 110.6 295.77 L 113.34 295.77 L 113.34 297.14 L 110.6 297.14 L 110.6 299.89 L 113.34 299.89 L 113.34 301.26 L 110.6 301.26 L 110.6 303.31 L 113.34 303.31 L 113.34 304.69 L 110.6 304.69 L 110.6 307.43 L 113.34 307.43 L 113.34 308.8 L 110.6 308.8 L 110.6 311.54 L 113.34 311.54 L 113.34 312.91 L 110.6 312.91 L 110.6 313.01 C 110.6 313.71 110.03 314.29 109.32 314.29 L 109.23 314.29 L 109.23 317.03 L 107.86 317.03 L 107.86 314.29 L 105.11 314.29 L 105.11 317.03 L 103.74 317.03 L 103.74 314.29 L 101.69 314.29 L 101.69 317.03 L 100.31 317.03 L 100.31 314.29 L 97.57 314.29 L 97.57 317.03 L 96.2 317.03 L 96.2 314.29 L 93.46 314.29 L 93.46 317.03 L 92.09 317.03 L 92.09 314.29 L 91.99 314.29 C 91.29 314.29 90.71 313.71 90.71 313.01 L 90.71 312.91 L 88.66 312.91 L 88.66 311.54 L 90.71 311.54 L 90.71 308.8 L 88.66 308.8 L 88.66 307.43 L 90.71 307.43 L 90.71 304.69 L 88.66 304.69 L 88.66 303.31 L 90.71 303.31 L 90.71 301.26 L 88.66 301.26 L 88.66 299.89 L 90.71 299.89 L 90.71 297.14 L 88.66 297.14 L 88.66 295.77 L 90.71 295.77 L 90.71 295.68 C 90.71 294.97 91.29 294.4 91.99 294.4 L 92.09 294.4 L 92.09 291.66 L 93.46 291.66 L 93.46 294.4 L 96.2 294.4 L 96.2 291.66 L 97.57 291.66 L 97.57 294.4 L 100.31 294.4 L 100.31 291.66 L 101.69 291.66 L 101.69 294.4 L 103.74 294.4 L 103.74 291.66 L 105.11 291.66 L 105.11 294.4 L 107.86 294.4 L 107.86 291.66 L 109.23 291.66 L 109.23 294.4 L 109.32 294.4 C 110.03 294.4 110.6 294.97 110.6 295.68 Z M 101.69 321.74 C 101.69 321.79 101.65 321.83 101.6 321.83 L 83.26 321.83 C 83.21 321.83 83.17 321.79 83.17 321.74 L 83.17 303.4 C 83.17 303.35 83.21 303.31 83.26 303.31 L 87.29 303.31 L 87.29 301.94 L 83.26 301.94 C 82.45 301.94 81.8 302.6 81.8 303.4 L 81.8 321.74 C 81.8 322.55 82.45 323.2 83.26 323.2 L 101.6 323.2 C 102.4 323.2 103.06 322.55 103.06 321.74 L 103.06 318.4 L 101.69 318.4 Z M 120.2 286.26 L 120.2 304.6 C 120.2 305.4 119.55 306.06 118.74 306.06 L 114.71 306.06 L 114.71 304.69 L 118.74 304.69 C 118.79 304.69 118.83 304.65 118.83 304.6 L 118.83 286.26 C 118.83 286.21 118.79 286.17 118.74 286.17 L 100.4 286.17 C 100.35 286.17 100.31 286.21 100.31 286.26 L 100.31 290.29 L 98.94 290.29 L 98.94 286.26 C 98.94 285.45 99.6 284.8 100.4 284.8 L 118.74 284.8 C 119.55 284.8 120.2 285.45 120.2 286.26 Z" fill="#ffffff" stroke="none" pointer-events="none"/><g transform="translate(-0.5 -0.5)"><switch><foreignObject pointer-events="none" width="100%" height="100%" requiredFeatures="http://www.w3.org/TR/SVG11/feature#Extensibility" style="overflow: visible; text-align: left;"><div xmlns="http://www.w3.org/1999/xhtml" style="display: flex; align-items: unsafe flex-start; justify-content: unsafe center; width: 1px; height: 1px; padding-top: 335px; margin-left: 101px;"><div data-drawio-colors="color: #232F3E; " style="box-sizing: border-box; font-size: 0px; text-align: center;"><div style="display: inline-block; font-size: 10px; font-family: Helvetica; color: rgb(35, 47, 62); line-height: 1.2; pointer-events: none; white-space: nowrap;">Amazon EC2<div><i>test instance</i></div></div></div></div></foreignObject><text x="101" y="345" fill="#232F3E" font-family="Helvetica" font-size="10px" text-anchor="middle">Amazon EC...</text></switch></g><rect x="221" y="250" width="120" height="120" rx="18" ry="18" fill="#000000" stroke="#000000" stroke-width="1.5" pointer-events="none" transform="translate(2,3)" opacity="0.25"/><rect x="221" y="250" width="120" height="120" rx="18" ry="18" fill="#ede7f6" stroke="#8c4fff" stroke-width="1.5" pointer-events="none"/><g transform="translate(-0.5 -0.5)"><switch><foreignObject pointer-events="none" width="100%" height="100%" requiredFeatures="http://www.w3.org/TR/SVG11/feature#Extensibility" style="overflow: visible; text-align: left;"><div xmlns="http://www.w3.org/1999/xhtml" style="display: flex; align-items: unsafe flex-start; justify-content: unsafe center; width: 118px; height: 1px; padding-top: 257px; margin-left: 222px;"><div data-drawio-colors="color: #8C4FFF; " style="box-sizing: border-box; font-size: 0px; text-align: center;"><div style="display: inline-block; font-size: 12px; font-family: Helvetica; color: rgb(140, 79, 255); line-height: 1.2; pointer-events: none; font-weight: bold; white-space: normal; overflow-wrap: normal;">Endpoint</div></div></div></foreignObject><text x="281" y="269" fill="#8C4FFF" font-family="Helvetica" font-size="12px" text-anchor="middle" font-weight="bold">Endpoint</text></switch></g><path d="M 283.08 305.04 L 285.16 305.04 L 285.16 302.96 L 283.08 302.96 Z M 279.96 305.04 L 282.04 305.04 L 282.04 302.96 L 279.96 302.96 Z M 276.83 305.04 L 278.92 305.04 L 278.92 302.96 L 276.83 302.96 Z M 295.53 311.64 L 288.34 317.97 L 288.34 290.18 L 295.53 296.51 Z M 288.58 287.56 C 288.35 287.46 287.39 287.18 286.72 287.55 L 286.16 287.86 L 286.16 320.29 L 286.72 320.6 C 286.97 320.74 287.26 320.78 287.54 320.78 C 288 320.78 288.44 320.65 288.58 320.59 L 288.74 320.52 L 296.89 313.35 C 297.39 313.05 297.71 312.52 297.71 311.95 L 297.71 296.2 C 297.71 295.62 297.4 295.09 296.89 294.8 L 288.74 287.62 Z M 273.66 317.97 L 266.47 311.64 L 266.47 296.5 L 273.66 290.18 Z M 273.42 287.56 L 273.26 287.62 L 265.11 294.8 C 264.6 295.09 264.29 295.62 264.29 296.2 L 264.29 311.95 C 264.29 312.52 264.6 313.05 265.11 313.35 L 273.26 320.52 L 273.42 320.59 C 273.56 320.65 273.99 320.78 274.46 320.78 C 274.74 320.78 275.03 320.74 275.28 320.6 L 275.84 320.29 L 275.84 287.86 L 275.28 287.55 C 274.61 287.18 273.65 287.46 273.42 287.56 Z M 302.82 313.04 L 290.04 325.82 L 271.96 325.82 L 259.18 313.04 L 259.18 294.96 L 271.96 282.18 L 290.04 282.18 L 302.82 294.96 Z M 290.94 280 L 271.06 280 L 257 294.06 L 257 313.94 L 271.06 328 L 290.94 328 L 305 313.94 L 305 294.06 Z" fill="#8c4fff" stroke="none" pointer-events="none"/><g transform="translate(-0.5 -0.5)"><switch><foreignObject pointer-events="none" width="100%" height="100%" requiredFeatures="http://www.w3.org/TR/SVG11/feature#Extensibility" style="overflow: visible; text-align: left;"><div xmlns="http://www.w3.org/1999/xhtml" style="display: flex; align-items: unsafe flex-start; justify-content: unsafe center; width: 1px; height: 1px; padding-top: 335px; margin-left: 281px;"><div data-drawio-colors="color: #232F3E; " style="box-sizing: border-box; font-size: 0px; text-align: center;"><div style="display: inline-block; font-size: 10px; font-family: Helvetica; color: rgb(35, 47, 62); line-height: 1.2; pointer-events: none; white-space: nowrap;">VPC Endpoint<div><i>interface</i></div></div></div></div></foreignObject><text x="281" y="345" fill="#232F3E" font-family="Helvetica" font-size="10px" text-anchor="middle">VPC Endpo...</text></switch></g><rect x="431" y="250" width="120" height="120" rx="18" ry="18" fill="#000000" stroke="#000000" stroke-width="1.5" pointer-events="none" transform="translate(2,3)" opacity="0.25"/><rect x="431" y="250" width="120" height="120" rx="18" ry="18" fill="#ede7f6" stroke="#8c4fff" stroke-width="1.5" pointer-events="none"/><g transform="translate(-0.5 -0.5)"><switch><foreignObject pointer-events="none" width="100%" height="100%" requiredFeatures="http://www.w3.org/TR/SVG11/feature#Extensibility" style="overflow: visible; text-align: left;"><div xmlns="http://www.w3.org/1999/xhtml" style="display: flex; align-items: unsafe flex-start; justify-content: unsafe center; width: 118px; height: 1px; padding-top: 257px; margin-left: 432px;"><div data-drawio-colors="color: #8C4FFF; " style="box-sizing: border-box; font-size: 0px; text-align: center;"><div style="display: inline-block; font-size: 12px; font-family: Helvetica; color: rgb(140, 79, 255); line-height: 1.2; pointer-events: none; font-weight: bold; white-space: normal; overflow-wrap: normal;">Connectivity</div></div></div></foreignObject><text x="491" y="269" fill="#8C4FFF" font-family="Helvetica" font-size="12px" text-anchor="middle" font-weight="bold">Connectivity</text></switch></g><path d="M 467 280 L 515 280 L 515 328 L 467 328 Z" fill="#000000" stroke="none" pointer-events="none" transform="translate(2,3)" opacity="0.25"/><path d="M 467 280 L 515 280 L 515 328 L 467 328 Z" fill="#8c4fff" stroke="none" pointer-events="none"/><path d="M 492.2 305.2 C 492.86 305.95 493.74 307.1 493.74 308.43 C 493.74 311.11 491.59 313.28 488.94 313.28 L 483.46 313.28 C 480.81 313.28 478.66 311.11 478.66 308.43 C 478.66 305.76 480.81 303.58 483.46 303.58 L 486.2 303.58 L 486.2 304.97 L 483.46 304.97 C 481.57 304.97 480.03 306.52 480.03 308.43 C 480.03 310.34 481.57 311.9 483.46 311.9 L 488.94 311.9 C 490.83 311.9 492.37 310.34 492.37 308.43 C 492.37 307.57 491.69 306.7 491.17 306.12 Z M 501.97 307.05 C 501.97 309.72 499.82 311.9 497.17 311.9 L 494.43 311.9 L 494.43 310.51 L 497.17 310.51 C 499.06 310.51 500.6 308.96 500.6 307.05 C 500.6 305.14 499.06 303.58 497.17 303.58 L 491.69 303.58 C 489.8 303.58 488.26 305.14 488.26 307.05 C 488.26 307.66 488.57 308.3 488.85 308.78 L 487.66 309.47 C 487.3 308.84 486.89 307.99 486.89 307.05 C 486.89 304.37 489.04 302.2 491.69 302.2 L 497.17 302.2 C 499.82 302.2 501.97 304.37 501.97 307.05 Z M 502.85 315.36 L 479.15 315.36 C 475.92 315.36 473.36 313.04 473.18 309.96 C 473.18 309.82 473.17 309.68 473.17 309.53 C 473.17 305.57 475.99 304.25 477.7 303.81 C 478.02 303.75 478.26 303.46 478.26 303.13 C 478.26 303.09 478.26 303.06 478.25 303.02 C 478.21 302.68 478.19 302.33 478.19 301.99 C 478.19 298.8 480.45 295.37 483.33 294.18 C 486.8 292.75 490.47 293.46 493.16 296.1 C 494.2 297.12 495.02 298.43 495.58 299.99 C 495.67 300.23 495.88 300.4 496.13 300.44 C 496.37 300.48 496.62 300.37 496.77 300.17 C 497.62 299.06 498.98 298.59 500.25 298.98 C 501.73 299.44 502.69 300.96 502.82 303.05 C 502.83 303.37 503.06 303.63 503.36 303.69 C 505.86 304.2 508.83 305.63 508.83 309.58 C 508.83 314.61 505.08 315.36 502.85 315.36 Z M 504.14 302.44 C 503.85 300.02 502.57 298.25 500.65 297.66 C 499.18 297.21 497.64 297.54 496.47 298.51 C 495.86 297.19 495.07 296.04 494.11 295.1 C 491.02 292.07 486.8 291.25 482.81 292.9 C 479.39 294.31 476.82 298.22 476.82 301.99 C 476.82 302.19 476.82 302.41 476.84 302.62 C 474.97 303.22 471.8 304.92 471.8 309.53 C 471.8 309.7 471.8 309.87 471.81 310.04 C 472.03 313.86 475.18 316.75 479.15 316.75 L 502.85 316.75 C 504.57 316.75 510.2 316.23 510.2 309.58 C 510.2 305.92 508.05 303.4 504.14 302.44 Z" fill="#ffffff" stroke="none" pointer-events="none"/><g transform="translate(-0.5 -0.5)"><switch><foreignObject pointer-events="none" width="100%" height="100%" requiredFeatures="http://www.w3.org/TR/SVG11/feature#Extensibility" style="overflow: visible; text-align: left;"><div xmlns="http://www.w3.org/1999/xhtml" style="display: flex; align-items: unsafe flex-start; justify-content: unsafe center; width: 1px; height: 1px; padding-top: 335px; margin-left: 491px;"><div data-drawio-colors="color: #232F3E; " style="box-sizing: border-box; font-size: 0px; text-align: center;"><div style="display: inline-block; font-size: 10px; font-family: Helvetica; color: rgb(35, 47, 62); line-height: 1.2; pointer-events: none; white-space: nowrap;">AWS PrivateLink<div><i>endpoint service</i></div></div></div></div></foreignObject><text x="491" y="345" fill="#232F3E" font-family="Helvetica" font-size="10px" text-anchor="middle">AWS Priva...</text></switch></g><rect x="601" y="110" width="520" height="400" rx="60" ry="60" fill="#000000" stroke="#000000" pointer-events="none" transform="translate(2,3)" opacity="0.25"/><rect x="601" y="110" width="520" height="400" rx="60" ry="60" fill="#f5f5f5" stroke="light-dark(#666666,#d4d4d4)" pointer-events="none"/><g transform="translate(-0.5 -0.5)"><switch><foreignObject pointer-events="none" width="100%" height="100%" requiredFeatures="http://www.w3.org/TR/SVG11/feature#Extensibility" style="overflow: visible; text-align: left;"><div xmlns="http://www.w3.org/1999/xhtml" style="display: flex; align-items: unsafe flex-start; justify-content: unsafe center; width: 518px; height: 1px; padding-top: 117px; margin-left: 602px;"><div data-drawio-colors="color: #333333; " style="box-sizing: border-box; font-size: 0px; text-align: center;"><div style="display: inline-block; font-size: 12px; font-family: Helvetica; color: rgb(51, 51, 51); line-height: 1.2; pointer-events: none; font-weight: bold; white-space: normal; overflow-wrap: normal;">shared-services · 10.11.0.0/16</div></div></div></foreignObject><text x="861" y="129" fill="#333333" font-family="Helvetica" font-size="12px" text-anchor="middle" font-weight="bold">shared-services · 10.11.0.0/16</text></switch></g><rect x="621" y="150" width="480" height="340" rx="51" ry="51" fill="light-dark(#8c4fff0d,#8c4fff0d)" stroke="#8c4fff" pointer-events="none"/><g transform="translate(-0.5 -0.5)"><switch><foreignObject pointer-events="none" width="100%" height="100%" requiredFeatures="http://www.w3.org/TR/SVG11/feature#Extensibility" style="overflow: visible; text-align: left;"><div xmlns="http://www.w3.org/1999/xhtml" style="display: flex; align-items: unsafe flex-start; justify-content: unsafe center; width: 478px; height: 1px; padding-top: 157px; margin-left: 622px;"><div data-drawio-colors="color: #8C4FFF; " style="box-sizing: border-box; font-size: 0px; text-align: center;"><div style="display: inline-block; font-size: 12px; font-family: Helvetica; color: rgb(140, 79, 255); line-height: 1.2; pointer-events: none; font-weight: bold; white-space: normal; overflow-wrap: normal;">Shared-services VPC</div></div></div></foreignObject><text x="861" y="169" fill="#8C4FFF" font-family="Helvetica" font-size="12px" text-anchor="middle" font-weight="bold">Shared-services VPC</text></switch></g><rect x="646" y="250" width="120" height="120" rx="18" ry="18" fill="#000000" stroke="#000000" stroke-width="1.5" pointer-events="none" transform="translate(2,3)" opacity="0.25"/><rect x="646" y="250" width="120" height="120" rx="18" ry="18" fill="#ede7f6" stroke="#8c4fff" stroke-width="1.5" pointer-events="none"/><g transform="translate(-0.5 -0.5)"><switch><foreignObject pointer-events="none" width="100%" height="100%" requiredFeatures="http://www.w3.org/TR/SVG11/feature#Extensibility" style="overflow: visible; text-align: left;"><div xmlns="http://www.w3.org/1999/xhtml" style="display: flex; align-items: unsafe flex-start; justify-content: unsafe center; width: 118px; height: 1px; padding-top: 257px; margin-left: 647px;"><div data-drawio-colors="color: #8C4FFF; " style="box-sizing: border-box; font-size: 0px; text-align: center;"><div style="display: inline-block; font-size: 12px; font-family: Helvetica; color: rgb(140, 79, 255); line-height: 1.2; pointer-events: none; font-weight: bold; white-space: normal; overflow-wrap: normal;">L4 LB</div></div></div></foreignObject><text x="706" y="269" fill="#8C4FFF" font-family="Helvetica" font-size="12px" text-anchor="middle" font-weight="bold">L4 LB</text></switch></g><path d="M 719.36 300.05 L 713.64 300.05 C 713.03 300.05 712.55 300.53 712.55 301.14 L 712.55 306.86 C 712.55 307.47 713.03 307.95 713.64 307.95 L 719.36 307.95 C 719.97 307.95 720.45 307.47 720.45 306.86 L 720.45 301.14 C 720.45 300.53 719.97 300.05 719.36 300.05 Z M 714.73 305.77 L 714.73 302.23 L 718.27 302.23 L 718.27 305.77 Z M 711.06 313.98 C 711.22 314.56 710.87 315.16 710.29 315.32 L 705.91 316.51 L 705.34 314.4 L 707.05 313.94 L 699.09 309.74 L 700.11 307.81 L 708.3 312.13 L 707.77 310.16 L 709.87 309.59 Z M 697.31 298.17 L 687.83 298.17 C 687.23 298.17 686.74 298.66 686.74 299.26 L 686.74 308.74 C 686.74 309.34 687.23 309.83 687.83 309.83 L 697.31 309.83 C 697.91 309.83 698.4 309.34 698.4 308.74 L 698.4 299.26 C 698.4 298.66 697.91 298.17 697.31 298.17 Z M 688.92 307.65 L 688.92 300.35 L 696.22 300.35 L 696.22 307.65 Z M 719.36 289.55 L 713.64 289.55 C 713.03 289.55 712.55 290.03 712.55 290.64 L 712.55 296.36 C 712.55 296.97 713.03 297.45 713.64 297.45 L 719.36 297.45 C 719.97 297.45 720.45 296.97 720.45 296.36 L 720.45 290.64 C 720.45 290.03 719.97 289.55 719.36 289.55 Z M 714.73 295.27 L 714.73 291.73 L 718.27 291.73 L 718.27 295.27 Z M 699.09 298.26 L 707.05 294.06 L 705.34 293.6 L 705.91 291.49 L 710.29 292.68 C 710.87 292.84 711.22 293.44 711.06 294.02 L 709.87 298.41 L 707.77 297.84 L 708.3 295.87 L 700.11 300.19 Z M 719.36 310.55 L 713.64 310.55 C 713.03 310.55 712.55 311.03 712.55 311.64 L 712.55 317.36 C 712.55 317.97 713.03 318.45 713.64 318.45 L 719.36 318.45 C 719.97 318.45 720.45 317.97 720.45 317.36 L 720.45 311.64 C 720.45 311.03 719.97 310.55 719.36 310.55 Z M 714.73 316.27 L 714.73 312.73 L 718.27 312.73 L 718.27 316.27 Z M 711.54 303.23 C 711.97 303.65 711.97 304.34 711.54 304.77 L 708.33 307.98 L 706.79 306.44 L 708.14 305.09 L 700.27 305.09 L 700.27 302.91 L 708.14 302.91 L 706.79 301.56 L 708.33 300.01 Z M 706 280 C 692.77 280 682 290.77 682 304 C 682 317.23 692.77 328 706 328 C 719.23 328 730 317.23 730 304 C 730 290.77 719.23 280 706 280 Z M 706 325.82 C 693.97 325.82 684.18 316.03 684.18 304 C 684.18 291.97 693.97 282.18 706 282.18 C 718.03 282.18 727.82 291.97 727.82 304 C 727.82 316.03 718.03 325.82 706 325.82 Z" fill="#8c4fff" stroke="none" pointer-events="none"/><g transform="translate(-0.5 -0.5)"><switch><foreignObject pointer-events="none" width="100%" height="100%" requiredFeatures="http://www.w3.org/TR/SVG11/feature#Extensibility" style="overflow: visible; text-align: left;"><div xmlns="http://www.w3.org/1999/xhtml" style="display: flex; align-items: unsafe flex-start; justify-content: unsafe center; width: 1px; height: 1px; padding-top: 335px; margin-left: 706px;"><div data-drawio-colors="color: #232F3E; " style="box-sizing: border-box; font-size: 0px; text-align: center;"><div style="display: inline-block; font-size: 10px; font-family: Helvetica; color: rgb(35, 47, 62); line-height: 1.2; pointer-events: none; white-space: nowrap;">NLB<div><i>TG type alb</i></div></div></div></div></foreignObject><text x="706" y="345" fill="#232F3E" font-family="Helvetica" font-size="10px" text-anchor="middle">NLB...</text></switch></g><rect x="806" y="250" width="120" height="120" rx="18" ry="18" fill="#000000" stroke="#000000" stroke-width="1.5" pointer-events="none" transform="translate(2,3)" opacity="0.25"/><rect x="806" y="250" width="120" height="120" rx="18" ry="18" fill="#ede7f6" stroke="#8c4fff" stroke-width="1.5" pointer-events="none"/><g transform="translate(-0.5 -0.5)"><switch><foreignObject pointer-events="none" width="100%" height="100%" requiredFeatures="http://www.w3.org/TR/SVG11/feature#Extensibility" style="overflow: visible; text-align: left;"><div xmlns="http://www.w3.org/1999/xhtml" style="display: flex; align-items: unsafe flex-start; justify-content: unsafe center; width: 118px; height: 1px; padding-top: 257px; margin-left: 807px;"><div data-drawio-colors="color: #8C4FFF; " style="box-sizing: border-box; font-size: 0px; text-align: center;"><div style="display: inline-block; font-size: 12px; font-family: Helvetica; color: rgb(140, 79, 255); line-height: 1.2; pointer-events: none; font-weight: bold; white-space: normal; overflow-wrap: normal;">L7 LB</div></div></div></foreignObject><text x="866" y="269" fill="#8C4FFF" font-family="Helvetica" font-size="12px" text-anchor="middle" font-weight="bold">L7 LB</text></switch></g><path d="M 866 280 C 852.77 280 842 290.77 842 304 C 842 317.23 852.77 328 866 328 C 879.23 328 890 317.23 890 304 C 890 290.77 879.23 280 866 280 Z M 866 325.82 C 853.97 325.82 844.18 316.03 844.18 304 C 844.18 291.97 853.97 282.18 866 282.18 C 878.03 282.18 887.82 291.97 887.82 304 C 887.82 316.03 878.03 325.82 866 325.82 Z M 880.22 310.55 L 878.55 310.55 L 878.55 306.86 C 878.55 306.26 878.06 305.77 877.45 305.77 L 874.73 305.77 L 874.73 302.09 C 874.73 301.49 874.24 301 873.64 301 L 867.09 301 L 867.09 298.41 L 873.64 298.41 C 874.24 298.41 874.73 297.92 874.73 297.32 L 874.73 288.73 C 874.73 288.12 874.24 287.64 873.64 287.64 L 858.36 287.64 C 857.76 287.64 857.27 288.12 857.27 288.73 L 857.27 297.32 C 857.27 297.92 857.76 298.41 858.36 298.41 L 864.91 298.41 L 864.91 301 L 858.36 301 C 857.76 301 857.27 301.49 857.27 302.09 L 857.27 305.77 L 854.55 305.77 C 853.94 305.77 853.46 306.26 853.46 306.86 L 853.46 310.55 L 851.78 310.55 C 851.18 310.55 850.69 311.03 850.69 311.64 L 850.69 316.41 C 850.69 317.01 851.18 317.5 851.78 317.5 L 856.46 317.5 C 857.06 317.5 857.55 317.01 857.55 316.41 L 857.55 311.64 C 857.55 311.03 857.06 310.55 856.46 310.55 L 855.64 310.55 L 855.64 307.95 L 860.14 307.95 L 860.14 310.55 L 859.32 310.55 C 858.72 310.55 858.23 311.03 858.23 311.64 L 858.23 316.41 C 858.23 317.01 858.72 317.5 859.32 317.5 L 864.09 317.5 C 864.69 317.5 865.18 317.01 865.18 316.41 L 865.18 311.64 C 865.18 311.03 864.69 310.55 864.09 310.55 L 862.32 310.55 L 862.32 306.86 C 862.32 306.26 861.83 305.77 861.23 305.77 L 859.46 305.77 L 859.46 303.18 L 872.55 303.18 L 872.55 305.77 L 870.77 305.77 C 870.17 305.77 869.68 306.26 869.68 306.86 L 869.68 310.55 L 867.91 310.55 C 867.31 310.55 866.82 311.03 866.82 311.64 L 866.82 316.41 C 866.82 317.01 867.31 317.5 867.91 317.5 L 872.68 317.5 C 873.28 317.5 873.77 317.01 873.77 316.41 L 873.77 311.64 C 873.77 311.03 873.28 310.55 872.68 310.55 L 871.86 310.55 L 871.86 307.95 L 876.36 307.95 L 876.36 310.55 L 875.48 310.55 C 874.88 310.55 874.39 311.03 874.39 311.64 L 874.39 316.41 C 874.39 317.01 874.88 317.5 875.48 317.5 L 880.22 317.5 C 880.82 317.5 881.31 317.01 881.31 316.41 L 881.31 311.64 C 881.31 311.03 880.82 310.55 880.22 310.55 Z M 859.46 296.23 L 859.46 289.82 L 872.55 289.82 L 872.55 296.23 Z M 852.87 315.32 L 852.87 312.73 L 855.36 312.73 L 855.36 315.32 Z M 860.41 315.32 L 860.41 312.73 L 863 312.73 L 863 315.32 Z M 869 315.32 L 869 312.73 L 871.59 312.73 L 871.59 315.32 Z M 876.57 315.32 L 876.57 312.73 L 879.13 312.73 L 879.13 315.32 Z" fill="#8c4fff" stroke="none" pointer-events="none"/><g transform="translate(-0.5 -0.5)"><switch><foreignObject pointer-events="none" width="100%" height="100%" requiredFeatures="http://www.w3.org/TR/SVG11/feature#Extensibility" style="overflow: visible; text-align: left;"><div xmlns="http://www.w3.org/1999/xhtml" style="display: flex; align-items: unsafe flex-start; justify-content: unsafe center; width: 1px; height: 1px; padding-top: 335px; margin-left: 866px;"><div data-drawio-colors="color: #232F3E; " style="box-sizing: border-box; font-size: 0px; text-align: center;"><div style="display: inline-block; font-size: 10px; font-family: Helvetica; color: rgb(35, 47, 62); line-height: 1.2; pointer-events: none; white-space: nowrap;">ALB<div><i>internal</i></div></div></div></div></foreignObject><text x="866" y="345" fill="#232F3E" font-family="Helvetica" font-size="10px" text-anchor="middle">ALB...</text></switch></g><rect x="956" y="250" width="120" height="120" rx="18" ry="18" fill="#000000" stroke="#000000" stroke-width="1.5" pointer-events="none" transform="translate(2,3)" opacity="0.25"/><rect x="956" y="250" width="120" height="120" rx="18" ry="18" fill="#fff2e8" stroke="#ed7100" stroke-width="1.5" pointer-events="none"/><g transform="translate(-0.5 -0.5)"><switch><foreignObject pointer-events="none" width="100%" height="100%" requiredFeatures="http://www.w3.org/TR/SVG11/feature#Extensibility" style="overflow: visible; text-align: left;"><div xmlns="http://www.w3.org/1999/xhtml" style="display: flex; align-items: unsafe flex-start; justify-content: unsafe center; width: 118px; height: 1px; padding-top: 257px; margin-left: 957px;"><div data-drawio-colors="color: #ED7100; " style="box-sizing: border-box; font-size: 0px; text-align: center;"><div style="display: inline-block; font-size: 12px; font-family: Helvetica; color: rgb(237, 113, 0); line-height: 1.2; pointer-events: none; font-weight: bold; white-space: normal; overflow-wrap: normal;">API</div></div></div></foreignObject><text x="1016" y="269" fill="#ED7100" font-family="Helvetica" font-size="12px" text-anchor="middle" font-weight="bold">API</text></switch></g><path d="M 992 280 L 1040 280 L 1040 328 L 992 328 Z" fill="#000000" stroke="none" pointer-events="none" transform="translate(2,3)" opacity="0.25"/><path d="M 992 280 L 1040 280 L 1040 328 L 992 328 Z" fill="#ed7100" stroke="none" pointer-events="none"/><path d="M 1007.09 312.91 L 1024.23 312.91 L 1024.23 295.77 L 1007.09 295.77 Z M 1025.6 295.77 L 1028.34 295.77 L 1028.34 297.14 L 1025.6 297.14 L 1025.6 299.89 L 1028.34 299.89 L 1028.34 301.26 L 1025.6 301.26 L 1025.6 303.31 L 1028.34 303.31 L 1028.34 304.69 L 1025.6 304.69 L 1025.6 307.43 L 1028.34 307.43 L 1028.34 308.8 L 1025.6 308.8 L 1025.6 311.54 L 1028.34 311.54 L 1028.34 312.91 L 1025.6 312.91 L 1025.6 313.01 C 1025.6 313.71 1025.03 314.29 1024.32 314.29 L 1024.23 314.29 L 1024.23 317.03 L 1022.86 317.03 L 1022.86 314.29 L 1020.11 314.29 L 1020.11 317.03 L 1018.74 317.03 L 1018.74 314.29 L 1016.69 314.29 L 1016.69 317.03 L 1015.31 317.03 L 1015.31 314.29 L 1012.57 314.29 L 1012.57 317.03 L 1011.2 317.03 L 1011.2 314.29 L 1008.46 314.29 L 1008.46 317.03 L 1007.09 317.03 L 1007.09 314.29 L 1006.99 314.29 C 1006.29 314.29 1005.71 313.71 1005.71 313.01 L 1005.71 312.91 L 1003.66 312.91 L 1003.66 311.54 L 1005.71 311.54 L 1005.71 308.8 L 1003.66 308.8 L 1003.66 307.43 L 1005.71 307.43 L 1005.71 304.69 L 1003.66 304.69 L 1003.66 303.31 L 1005.71 303.31 L 1005.71 301.26 L 1003.66 301.26 L 1003.66 299.89 L 1005.71 299.89 L 1005.71 297.14 L 1003.66 297.14 L 1003.66 295.77 L 1005.71 295.77 L 1005.71 295.68 C 1005.71 294.97 1006.29 294.4 1006.99 294.4 L 1007.09 294.4 L 1007.09 291.66 L 1008.46 291.66 L 1008.46 294.4 L 1011.2 294.4 L 1011.2 291.66 L 1012.57 291.66 L 1012.57 294.4 L 1015.31 294.4 L 1015.31 291.66 L 1016.69 291.66 L 1016.69 294.4 L 1018.74 294.4 L 1018.74 291.66 L 1020.11 291.66 L 1020.11 294.4 L 1022.86 294.4 L 1022.86 291.66 L 1024.23 291.66 L 1024.23 294.4 L 1024.32 294.4 C 1025.03 294.4 1025.6 294.97 1025.6 295.68 Z M 1016.69 321.74 C 1016.69 321.79 1016.65 321.83 1016.6 321.83 L 998.26 321.83 C 998.21 321.83 998.17 321.79 998.17 321.74 L 998.17 303.4 C 998.17 303.35 998.21 303.31 998.26 303.31 L 1002.29 303.31 L 1002.29 301.94 L 998.26 301.94 C 997.45 301.94 996.8 302.6 996.8 303.4 L 996.8 321.74 C 996.8 322.55 997.45 323.2 998.26 323.2 L 1016.6 323.2 C 1017.4 323.2 1018.06 322.55 1018.06 321.74 L 1018.06 318.4 L 1016.69 318.4 Z M 1035.2 286.26 L 1035.2 304.6 C 1035.2 305.4 1034.55 306.06 1033.74 306.06 L 1029.71 306.06 L 1029.71 304.69 L 1033.74 304.69 C 1033.79 304.69 1033.83 304.65 1033.83 304.6 L 1033.83 286.26 C 1033.83 286.21 1033.79 286.17 1033.74 286.17 L 1015.4 286.17 C 1015.35 286.17 1015.31 286.21 1015.31 286.26 L 1015.31 290.29 L 1013.94 290.29 L 1013.94 286.26 C 1013.94 285.45 1014.6 284.8 1015.4 284.8 L 1033.74 284.8 C 1034.55 284.8 1035.2 285.45 1035.2 286.26 Z" fill="#ffffff" stroke="none" pointer-events="none"/><g transform="translate(-0.5 -0.5)"><switch><foreignObject pointer-events="none" width="100%" height="100%" requiredFeatures="http://www.w3.org/TR/SVG11/feature#Extensibility" style="overflow: visible; text-align: left;"><div xmlns="http://www.w3.org/1999/xhtml" style="display: flex; align-items: unsafe flex-start; justify-content: unsafe center; width: 1px; height: 1px; padding-top: 335px; margin-left: 1016px;"><div data-drawio-colors="color: #232F3E; " style="box-sizing: border-box; font-size: 0px; text-align: center;"><div style="display: inline-block; font-size: 10px; font-family: Helvetica; color: rgb(35, 47, 62); line-height: 1.2; pointer-events: none; white-space: nowrap;">Amazon EC2<div><i>pattern=privatelink</i></div></div></div></div></foreignObject><text x="1016" y="345" fill="#232F3E" font-family="Helvetica" font-size="10px" text-anchor="middle">Amazon EC...</text></switch></g><path d="M 125 304 L 249.7 304" fill="none" stroke="#545b64" stroke-width="1.5" stroke-miterlimit="10" pointer-events="none"/><path d="M 255.32 304 L 247.82 307.75 L 249.7 304 L 247.82 300.25 Z" fill="#545b64" stroke="#545b64" stroke-width="1.5" stroke-miterlimit="10" pointer-events="none"/><g transform="translate(-0.5 -0.5)"><switch><foreignObject pointer-events="none" width="100%" height="100%" requiredFeatures="http://www.w3.org/TR/SVG11/feature#Extensibility" style="overflow: visible; text-align: left;"><div xmlns="http://www.w3.org/1999/xhtml" style="display: flex; align-items: unsafe center; justify-content: unsafe center; width: 1px; height: 1px; padding-top: 305px; margin-left: 192px;"><div data-drawio-colors="color: #0073BB; background-color: #FFFFFF; " style="box-sizing: border-box; font-size: 0px; text-align: center;"><div style="display: inline-block; font-size: 11px; font-family: Helvetica; color: rgb(0, 115, 187); line-height: 1.2; pointer-events: none; background-color: rgb(255, 255, 255); white-space: nowrap;">HTTP :80</div></div></div></foreignObject><text x="192" y="308" fill="#0073BB" font-family="Helvetica" font-size="11px" text-anchor="middle">HTTP :80</text></switch></g><path d="M 305 304 L 459.7 304" fill="none" stroke="#545b64" stroke-width="1.5" stroke-miterlimit="10" pointer-events="none"/><path d="M 465.32 304 L 457.82 307.75 L 459.7 304 L 457.82 300.25 Z" fill="#545b64" stroke="#545b64" stroke-width="1.5" stroke-miterlimit="10" pointer-events="none"/><path d="M 515 304 L 674.7 304" fill="none" stroke="#545b64" stroke-width="1.5" stroke-miterlimit="10" pointer-events="none"/><path d="M 680.32 304 L 672.82 307.75 L 674.7 304 L 672.82 300.25 Z" fill="#545b64" stroke="#545b64" stroke-width="1.5" stroke-miterlimit="10" pointer-events="none"/><path d="M 730 304 L 834.7 304" fill="none" stroke="#545b64" stroke-width="1.5" stroke-miterlimit="10" pointer-events="none"/><path d="M 840.32 304 L 832.82 307.75 L 834.7 304 L 832.82 300.25 Z" fill="#545b64" stroke="#545b64" stroke-width="1.5" stroke-miterlimit="10" pointer-events="none"/><path d="M 890 304 L 984.7 304" fill="none" stroke="#545b64" stroke-width="1.5" stroke-miterlimit="10" pointer-events="none"/><path d="M 990.32 304 L 982.82 307.75 L 984.7 304 L 982.82 300.25 Z" fill="#545b64" stroke="#545b64" stroke-width="1.5" stroke-miterlimit="10" pointer-events="none"/></g><switch><g requiredFeatures="http://www.w3.org/TR/SVG11/feature#Extensibility"/><a transform="translate(0,-5)" xlink:href="https://www.diagrams.net/doc/faq/svg-export-text-problems" target="_blank"><text text-anchor="middle" font-size="10px" x="50%" y="100%">Text is not SVG - cannot display</text></a></switch></svg>