<svg xmlns="http://www.w3.org/2000/svg" xmlns:xlink="http://www.w3.org/1999/xlink" version="1.1" width="1104px" height="514px" viewBox="-0.5 -0.5 1104 514" content="&lt;mxfile&gt;&lt;diagram id=&quot;tgw&quot; name=&quot;tgw&quot;&gt;7VtZc+I4EP41VM08QPnimEfOzFRltlLD1OYxJWxhtJEtShaQzK/fli0b21I4AkmWLJDDbsmW1F9/3S3JbrjD6OmGo+XiJwswbThW8NRwRw3Hsb22C/+k5FlJbOdbJgk5CZRsK5iSP1gJLSVdkQAnlYqCMSrIsir0WRxjX1RkiHO2qVabM1ptdYlCrAmmPqK69J4EYpEPo2dtC75jEi5U0x1LFUQor6wEyQIFbFMSueOGO+SMiewoehpiKrWX6yW7bvJCadExjmNxyAWCCIqbIWerZXbpGtGVGqXqoXjOh51VcwdzFosJigiV+H3HdI0F8REU6K1XgUCz/FZq+GvMBX4qVVW9vMEswoI/QxVV6qkrlMnkN9iU1Z9reVFSfU/ZGlKQh8Wdt1qBA6WYXUqCjgpNR785ihMCcusGCbxBssdfbl3ZidXsq6bB9B7uYCEiaGtkwyGiJIzhmOK5LJEKAV3SvhILlitcscDp5efqrvZxgOiA74egpORvJh3n2Jyi42Q126HmX/2fTaAKxwHIf9/cp52CPjnW33dD2bIQyF9EMMpEnsVBBgD8hYEKLIXypzvMDn6APUJf+3DYv5/Kv9xfEAEWuuK4KD8/eLa3CyxZMGSU8bQ5t+21Bx3vbCA+V7Hah6njnYs3CT7AtVASw9EgEZw9Fj7VqWo7KyxpaDL5Jvv+5vavVNc1+ByrZ9CdfQY+IN9vBnitaS6VWVDKVrF0O42h0xh04cC2Wo7bslrQ9sTuaAqeE0pLqpu35VdTKpWDaAaIP36BSp3003Cgs+7Ik9+vcAWoLg5woEDZSN5Ml8iX7Wwg3lcx20GJmv/KKeLoTMg+u3AGvgoEJsTVDX1GKVomJIs30kSKQGtrZmbvilyvjlC2q5uL6xi95xnMZb00m8sQHNkqAr0oT7nDKqrY94beZDKxRhn6+dlXEw2zQgkP3C2HFa0E+xBj2fbm9caiW0OVjgfbhFO1CYPzdUwOxD1HRA0hlCZ6KB1SIke1xz+ACp1xz4T2eNS1U6f7/tAWTb+RH2i1jdhXuXUw9r0q9m1D9DC5g0J4CvbEjH0/Qn9YDLIxRA2nQ2XSEhAYWScU6dAzEckF2U0sEicCxYCsKofWSf0akFXuVDOv5BELf6EwWDIiEzUoaA/gB8Y7zH7bqbsBSctpG4QmWVcX2no1+GebWqgLTbKuLrT1avIs73VVaJJ123qP61fbhqvt2tXw4w4gw5Xp07CY7Fo6deA7kaYyqPG8oJTG83n6kQaCkkVKc6vE41s0w/SOwdSHMMnnGROCRS8SPU+UfSCVJGfZNZRJb9WcgjxHyTIb1pw8yX5ICi9lYfQUyvWFFtokXovjhK24j2XqLp0TTrKjai3sO7vcR8U56I6g4lEP9gNup+IHDGmB1zNkBb1zRACYF+lOoJgr7QsC49G4O+nsDPmXGd8/LAg41vtGARP+2fS5bAX7A4FfSyPPEweOclzA4kBmLnlZzNIZY81kC+uomqyq/J9zZWkkxHy8xllAtF9ybzgO8qh5zGy37AEuwGE5mrFqBoSDEOcqVaiWANjD2yxE6CmSQDzEQiONbGunwjimSJB1dVX4xJw93GhK+C5Xsq6u+lBXffzMvb64bFpdfstc3YC5YWF5v5sulkjTtc9rsv7JkvUXgttnTdZFRoGHUBHgpMS9oNgFhMGwyVGkeYSpJPe+ODCZjAfjsclERiPX84YfEgeKpi8sDri9940DJtSz/alf/Z8HpemcJUmz2By4BoBPFgAKIv0/AkBe6wEsGifJQ4RiFKYden0g2HLsAgKB3HVIEs0nZGleM8F8Tfxsc7u0C2hfdwFfFUXOE0M6B2wDts0PUZxpG9BgMFPNYK6bgSduBhZaPuNeoNd5u71ARGeaWdwyJCeLM0Tl7g6/rjEctxx8vAkUT6g9187faznYYAT928EhqWW6Thkjeb/RX9PrCvC50qODV4DRckmhL7KLDxSI+1DQ9tgV4cIILiADgu4u9cfH+nc/9k+Erw8wnOas3I92Vibgj3yAYYmEdFsSL7kAdJ0Qf7IJ8fXxhaMmv1tKXYDrx7ZGw/LmH+NiwUIGKcl4K6359G2dWyaBTIX/YCGeFWJqYrLrIePiMWyTrz3+TYjDtiCL5er334LEdpPqMwX5RsOaoIZ6+t6AS0qphvHx+II2dXZFJAgy2HBC/qBtkKu6WOklqLz9APmPYQpxNdJvZwA5E3e+FVFzLpbVdQcDI2i5DZ7w/srBAKlL7+TQt/xreu3qJWw+T7DQEC1aPAzk3Rvrn4NbOYdqu/t5+ns+aqWX9jlP3/7JKygTfhHYbn3TueuVQd1b33W8mhFkPXi1Sbif3yQK7GsmkYfFN/e2cLp9ty8DafuKpDv+Fw==&lt;/diagram&gt;&lt;/mxfile&gt;"><defs/>
<style>
@media (prefers-color-scheme: dark) {
  /* Account container fills */
  rect[fill="#f5f5f5"] { fill: #2a2a3e !important; }
  /* Account container strokes */
  rect[stroke="light-dark(#666666,#d4d4d4)"] { stroke: #555577 !important; }
  /* VPC container fills */
  rect[fill="light-dark(#8c4fff0d,#8c4fff0d)"] { fill: rgba(140,79,255,0.1) !important; }
  /* Drop shadows - darken for dark mode */
  [transform*="translate(2,3)"][opacity="0.25"] { opacity: 0.5 !important; }
  /* Purple group box fills */
  rect[fill="#ede7f6"] { fill: #2d2350 !important; }
  /* Orange group box fills */
  rect[fill="#fff2e8"] { fill: #3d2a18 !important; }
  /* Red group box fills */
  rect[fill="#ffebee"] { fill: #3d1a22 !important; }
  /* Edge label background rects */
  rect[fill="#ffffff"] { fill: #2a2a3e !important; }
  /* Edge lines */
  path[stroke="#545b64"] { stroke: #8899aa !important; }
  /* Title text - dark to light */
  text[fill="rgb(0, 0, 0)"] { fill: #e8e8f0; }
  /* Subtitle text */
  text[fill="#545B64"], text[fill="#545b64"] { fill: #9aa8b8; }
  /* Account label text */
  text[fill="#333333"] { fill: #d0d0e0; }
  /* Icon description text */
  text[fill="#232F3E"] { fill: #c8d0d8; }
  /* Edge label text */
  text[fill="#0073BB"] { fill: #4db8ff; }
  /* VPC label text - brighter purple */
  text[fill="#8C4FFF"] { fill: #b088ff; }
  /* Compute label text - brighter orange */
  text[fill="#ED7100"] { fill: #ff9933; }
  /* Security label text - brighter red */
  text[fill="#DD344C"] { fill: #ff5577; }
  /* foreignObject text color overrides */
  [data-drawio-colors*="color: rgb(0, 0, 0)"] div { color: #e8e8f0 !important; }
  [data-drawio-colors*="color: #333333"] div { color: #d0d0e0 !important; }
  [data-drawio-colors*="color: #232F3E"] div { color: #c8d0d8 !important; }
  [data-drawio-colors*="color: #545B64"] div { color: #9aa8b8 !important; }
  [data-drawio-colors*="color: #8C4FFF"] div { color: #b088ff !important; }
  [data-drawio-colors*="color: #ED7100"] div { color: #ff9933 !important; }
  [data-drawio-colors*="color: #DD344C"] div { color: #ff5577 !important; }
  [data-drawio-colors*="color: #0073BB"] div { color: #4db8ff !important; }
}
</style><g><g transform="translate(-0.5 -0.5)"><switch><foreignObject pointer-events="none" width="100%" height="100%" requiredFeatures="http://www.w3.org/TR/SVG11/feature#Extensibility" style="overflow: visible; text-align: left;"><div xmlns="http://www.w3.org/1999/xhtml" style="display: flex; align-items: unsafe flex-start; justify-content: unsafe flex-start; width: 1px; height: 1px; padding-top: 7px; margin-left: 3px;"><div data-drawio-colors="color: rgb(0, 0, 0); " style="box-sizing: border-box; font-size: 0px; text-align: left;"><div style="display: inline-block; font-size: 28px; font-family: Helvetica; color: rgb(0, 0, 0); line-height: 1.2; pointer-events: none; font-weight: bold; white-space: nowrap;">Transit Gateway (L3 hub)</div></div></div></foreignObject><text x="3" y="35" fill="rgb(0, 0, 0)" font-family="Helvetica" font-size="28px" font-weight="bold">Transit Gateway (L3 hub)</text></switch></g><g transform="translate(-0.5 -0.5)"><switch><foreignObject pointer-events="none" width="100%" height="100%" requiredFeatures="http://www.w3.org/TR/SVG11/feature#Extensibility" style="overflow: visible; text-align: left;"><div xmlns="http://www.w3.org/1999/xhtml" style="display: flex; align-items: unsafe flex-start; justify-content: unsafe flex-start; width: 1px; height: 1px; padding-top: 47px; margin-left: 3px;"><div data-drawio-colors="color: #545B64; " style="box-sizing: border-box; font-size: 0px; text-align: left;"><div style="display: inline-block; font-size: 14px; font-family: Helvetica; color: rgb(84, 91, 100); line-height: 1.2; pointer-events: none; white-space: nowrap;">RAM-shared TGW with VPC attachments and hub routes  |  Icons: AWS Architecture Icons</div></div></div></foreignObject><text x="3" y="61" fill="#545B64" font-family="Helvetica" font-size="14px">RAM-shared TGW with VPC attachments and hub routes  |  Icons: AWS Architecture Icons</text></switch></g><path d="M 1 75 L 1081 75" fill="none" stroke="#ff9900" stroke-width="2" stroke-miterlimit="10" pointer-events="none"/><rect x="1" y="110" width="320" height="400" rx="48" ry="48" fill="#000000" stroke="#000000" pointer-events="none" transform="translate(2,3)" opacity="0.25"/><rect x="1" y="110" width="320" height="400" rx="48" ry="48" fill="#f5f5f5" stroke="light-dark(#666666,#d4d4d4)" pointer-events="none"/><g transform="translate(-0.5 -0.5)"><switch><foreignObject pointer-events="none" width="100%" height="100%" requiredFeatures="http://www.w3.org/TR/SVG11/feature#Extensibility" style="overflow: visible; text-align: left;"><div xmlns="http://www.w3.org/1999/xhtml" style="display: flex; align-items: unsafe flex-start; justify-content: unsafe center; width: 318px; height: 1px; padding-top: 117px; margin-left: 2px;"><div data-drawio-colors="color: #333333; " style="box-sizing: border-box; font-size: 0px; text-align: center;"><div style="display: inline-block; font-size: 12px; font-family: Helvetica; color: rgb(51, 51, 51); line-height: 1.2; pointer-events: none; font-weight: bold; white-space: normal; overflow-wrap: normal;">dev account · 10.23.0.0/16</div></div></div></foreignObject><text x="161" y="129" fill="#333333" font-family="Helvetica" font-size="12px" text-anchor="middle" font-weight="bold">dev account · 10.23.0.0/16</text></switch></g><rect x="21" y="150" width="280" height="340" rx="42" ry="42" fill="light-dark(#8c4fff0d,#8c4fff0d)" stroke="#8c4fff" pointer-events="none"/><g transform="translate(-0.5 -0.5)"><switch><foreignObject pointer-events="none" width="100%" height="100%" requiredFeatures="http://www.w3.org/TR/SVG11/feature#Extensibility" style="overflow: visible; text-align: left;"><div xmlns="http://www.w3.org/1999/xhtml" style="display: flex; align-items: unsafe flex-start; justify-content: unsafe center; width: 278px; height: 1px; padding-top: 157px; margin-left: 22px;"><div data-drawio-colors="color: #8C4FFF; " style="box-sizing: border-box; font-size: 0px; text-align: center;"><div style="display: inline-block; font-size: 12px; font-family: Helvetica; color: rgb(140, 79, 255); line-height: 1.2; pointer-events: none; font-weight: bold; white-space: normal; overflow-wrap: normal;">Consumer VPC</div></div></div></foreignObject><text x="161" y="169" fill="#8C4FFF" font-family="Helvetica" font-size="12px" text-anchor="middle" font-weight="bold">Consumer VPC</text></switch></g><rect x="101" y="200" width="120" height="120" rx="18" ry="18" fill="#000000" stroke="#000000" stroke-width="1.5" pointer-events="none" transform="translate(2,3)" opacity="0.25"/><rect x="101" y="200" width="120" height="120" rx="18" ry="18" fill="#fff2e8" stroke="#ed7100" stroke-width="1.5" pointer-events="none"/><g transform="translate(-0.5 -0.5)"><switch><foreignObject pointer-events="none" width="100%" height="100%" requiredFeatures="http://www.w3.org/TR/SVG11/feature#Extensibility" style="overflow: visible; text-align: left;"><div xmlns="http://www.w3.org/1999/xhtml" style="display: flex; align-items: unsafe flex-start; justify-content: unsafe center; width: 118px; height: 1px; padding-top: 207px; margin-left: 102px;"><div data-drawio-colors="color: #ED7100; " style="box-sizing: border-box; font-size: 0px; text-align: center;"><div style="display: inline-block; font-size: 12px; font-family: Helvetica; color: rgb(237, 113, 0); line-height: 1.2; pointer-events: none; font-weight: bold; white-space: normal; overflow-wrap: normal;">Client</div></div></div></foreignObject><text x="161" y="219" fill="#ED7100" font-family="Helvetica" font-size="12px" text-anchor="middle" font-weight="bold">Client</text></switch></g><path d="M 137 230 L 185 230 L 185 278 L 137 278 Z" fill="#000000" stroke="none" pointer-events="none" transform="translate(2,3)" opacity="0.25"/><path d="M 137 230 L 185 230 L 185 278 L 137 278 Z" fill="#ed7100" stroke="none" pointer-events="none"/><path d="M 152.09 262.91 L 169.23 262.91 L 169.23 245.77 L 152.09 245.77 Z M 170.6 245.77 L 173.34 245.77 L 173.34 247.14 L 170.6 247.14 L 170.6 249.89 L 173.34 249.89 L 173.34 251.26 L 170.6 251.26 L 170.6 253.31 L 173.34 253.31 L 173.34 254.69 L 170.6 254.69 L 170.6 257.43 L 173.34 257.43 L 173.34 258.8 L 170.6 258.8 L 170.6 261.54 L 173.34 261.54 L 173.34 262.91 L 170.6 262.91 L 170.6 263.01 C 170.6 263.71 170.03 264.29 169.32 264.29 L 169.23 264.29 L 169.23 267.03 L 167.86 267.03 L 167.86 264.29 L 165.11 264.29 L 165.11 267.03 L 163.74 267.03 L 163.74 264.29 L 161.69 264.29 L 161.69 267.03 L 160.31 267.03 L 160.31 264.29 L 157.57 264.29 L 157.57 267.03 L 156.2 267.03 L 156.2 264.29 L 153.46 264.29 L 153.46 267.03 L 152.09 267.03 L 152.09 264.29 L 151.99 264.29 C 151.29 264.29 150.71 263.71 150.71 263.01 L 150.71 262.91 L 148.66 262.91 L 148.66 261.54 L 150.71 261.54 L 150.71 258.8 L 148.66 258.8 L 148.66 257.43 L 150.71 257.43 L 150.71 254.69 L 148.66 254.69 L 148.66 253.31 L 150.71 253.31 L 150.71 251.26 L 148.66 251.26 L 148.66 249.89 L 150.71 249.89 L 150.71 247.14 L 148.66 247.14 L 148.66 245.77 L 150.71 245.77 L 150.71 245.68 C 150.71 244.97 151.29 244.4 151.99 244.4 L 152.09 244.4 L 152.09 241.66 L 153.46 241.66 L 153.46 244.4 L 156.2 244.4 L 156.2 241.66 L 157.57 241.66 L 157.57 244.4 L 160.31 244.4 L 160.31 241.66 L 161.69 241.66 L 161.69 244.4 L 163.74 244.4 L 163.74 241.66 L 165.11 241.66 L 165.11 244.4 L 167.86 244.4 L 167.86 241.66 L 169.23 241.66 L 169.23 244.4 L 169.32 244.4 C 170.03 244.4 170.6 244.97 170.6 245.68 Z M 161.69 271.74 C 161.69 271.79 161.65 271.83 161.6 271.83 L 143.26 271.83 C 143.21 271.83 143.17 271.79 143.17 271.74 L 143.17 253.4 C 143.17 253.35 143.21 253.31 143.26 253.31 L 147.29 253.31 L 147.29 251.94 L 143.26 251.94 C 142.45 251.94 141.8 252.6 141.8 253.4 L 141.8 271.74 C 141.8 272.55 142.45 273.2 143.26 273.2 L 161.6 273.2 C 162.4 273.2 163.06 272.55 163.06 271.74 L 163.06 268.4 L 161.69 268.4 Z M 180.2 236.26 L 180.2 254.6 C 180.2 255.4 179.55 256.06 178.74 256.06 L 174.71 256.06 L 174.71 254.69 L 178.74 254.69 C 178.79 254.69 178.83 254.65 178.83 254.6 L 178.83 236.26 C 178.83 236.21 178.79 236.17 178.74 236.17 L 160.4 236.17 C 160.35 236.17 160.31 236.21 160.31 236.26 L 160.31 240.29 L 158.94 240.29 L 158.94 236.26 C 158.94 235.45 159.6 234.8 160.4 234.8 L 178.74 234.8 C 179.55 234.8 180.2 235.45 180.2 236.26 Z" fill="#ffffff" stroke="none" pointer-events="none"/><g transform="translate(-0.5 -0.5)"><switch><foreignObject pointer-events="none" width="100%" height="100%" requiredFeatures="http://www.w3.org/TR/SVG11/feature#Extensibility" style="overflow: visible; text-align: left;"><div xmlns="http://www.w3.org/1999/xhtml" style="display: flex; align-items: unsafe flex-start; justify-content: unsafe center; width: 1px; height: 1px; padding-top: 285px; margin-left: 161px;"><div data-drawio-colors="color: #232F3E; " style="box-sizing: border-box; font-size: 0px; text-align: center;"><div style="display: inline-block; font-size: 10px; font-family: Helvetica; color: rgb(35, 47, 62); line-height: 1.2; pointer-events: none; white-space: nowrap;">Amazon EC2<div><i>test instance</i></div></div></div></div></foreignObject><text x="161" y="295" fill="#232F3E" font-family="Helvetica" font-size="10px" text-anchor="middle">Amazon EC...</text></switch></g><rect x="101" y="350" width="120" height="120" rx="18" ry="18" fill="#000000" stroke="#000000" stroke-width="1.5" pointer-events="none" transform="translate(2,3)" opacity="0.25"/><rect x="101" y="350" width="120" height="120" rx="18" ry="18" fill="#ede7f6" stroke="#8c4fff" stroke-width="1.5" pointer-events="none"/><g transform="translate(-0.5 -0.5)"><switch><foreignObject pointer-events="none" width="100%" height="100%" requiredFeatures="http://www.w3.org/TR/SVG11/feature#Extensibility" style="overflow: visible; text-align: left;"><div xmlns="http://www.w3.org/1999/xhtml" style="display: flex; align-items: unsafe flex-start; justify-content: unsafe center; width: 118px; height: 1px; padding-top: 357px; margin-left: 102px;"><div data-drawio-colors="color: #8C4FFF; " style="box-sizing: border-box; font-size: 0px; text-align: center;"><div style="display: inline-block; font-size: 12px; font-family: Helvetica; color: rgb(140, 79, 255); line-height: 1.2; pointer-events: none; font-weight: bold; white-space: normal; overflow-wrap: normal;">Attachment</div></div></div></foreignObject><text x="161" y="369" fill="#8C4FFF" font-family="Helvetica" font-size="12px" text-anchor="middle" font-weight="bold">Attachment</text></switch></g><path d="M 157.36 408 L 158.91 409.55 L 163.68 404.77 C 164.11 404.35 164.11 403.65 163.68 403.23 L 158.91 398.45 L 157.36 400 L 160.27 402.91 L 141.91 402.91 L 141.91 405.09 L 160.27 405.09 Z M 182.81 404 C 182.81 391.97 173.03 382.19 161 382.19 C 148.97 382.19 139.19 391.97 139.19 404 C 139.19 416.03 148.97 425.81 161 425.81 C 173.03 425.81 182.81 416.03 182.81 404 Z M 185 404 C 185 417.23 174.23 428 161 428 C 147.77 428 137 417.23 137 404 C 137 390.77 147.77 380 161 380 C 174.23 380 185 390.77 185 404 Z M 152.27 406.86 L 152.27 407.36 C 152.27 407.43 152.28 407.49 152.29 407.55 C 152.36 407.94 154.06 416.92 161 416.92 C 167.94 416.92 169.64 407.94 169.71 407.55 C 169.72 407.49 169.73 407.43 169.73 407.36 L 169.73 395.82 C 169.73 395.37 169.46 394.97 169.04 394.81 L 161.41 391.73 C 161.15 391.63 160.85 391.63 160.59 391.73 L 152.96 394.81 C 152.54 394.97 152.27 395.37 152.27 395.82 L 152.27 401.14 L 154.46 401.14 L 154.46 396.56 L 161 393.93 L 167.54 396.56 L 167.54 407.25 C 167.37 408.1 165.81 414.73 161 414.73 C 156.19 414.73 154.63 408.1 154.46 407.25 L 154.46 406.86 Z M 173.55 392.39 L 173.55 406.99 C 173.55 411.94 170.92 421.32 161 421.32 C 155.84 421.32 152.02 418.65 149.96 413.59 C 148.87 410.92 148.57 408.27 148.48 406.93 L 150.67 406.79 C 150.73 407.76 150.98 410.29 151.99 412.77 C 153.71 416.99 156.74 419.13 161 419.13 C 171.21 419.13 171.36 407.48 171.36 406.99 L 171.36 393.12 L 161 388.95 L 150.64 393.12 L 150.64 401.14 L 148.45 401.14 L 148.45 392.39 C 148.45 391.94 148.72 391.54 149.14 391.37 L 160.59 386.76 C 160.85 386.65 161.15 386.65 161.41 386.76 L 172.86 391.37 C 173.28 391.54 173.55 391.94 173.55 392.39 Z" fill="#8c4fff" stroke="none" pointer-events="none"/><g transform="translate(-0.5 -0.5)"><switch><foreignObject pointer-events="none" width="100%" height="100%" requiredFeatures="http://www.w3.org/TR/SVG11/feature#Extensibility" style="overflow: visible; text-align: left;"><div xmlns="http://www.w3.org/1999/xhtml" style="display: flex; align-items: unsafe flex-start; justify-content: unsafe center; width: 1px; height: 1px; padding-top: 435px; margin-left: 161px;"><div data-drawio-colors="color: #232F3E; " style="box-sizing: border-box; font-size: 0px; text-align: center;"><div style="display: inline-block; font-size: 10px; font-family: Helvetica; color: rgb(35, 47, 62); line-height: 1.2; pointer-events: none; white-space: nowrap;">TGW Attachment<div><i>consumer VPC</i></div></div></div></div></foreignObject><text x="161" y="445" fill="#232F3E" font-family="Helvetica" font-size="10px" text-anchor="middle">TGW Attac...</text></switch></g><path d="M 161 278 L 161 373.63" fill="none" stroke="rgb(0, 0, 0)" stroke-miterlimit="10" pointer-events="none"/><path d="M 161 378.88 L 157.5 371.88 L 161 373.63 L 164.5 371.88 Z" fill="rgb(0, 0, 0)" stroke="rgb(0, 0, 0)" stroke-miterlimit="10" pointer-events="none"/><rect x="401" y="200" width="120" height="120" rx="18" ry="18" fill="#000000" stroke="#000000" stroke-width="1.5" pointer-events="none" transform="translate(2,3)" opacity="0.25"/><rect x="401" y="200" width="120" height="120" rx="18" ry="18" fill="#ede7f6" stroke="#8c4fff" stroke-width="1.5" pointer-events="none"/><g transform="translate(-0.5 -0.5)"><switch><foreignObject pointer-events="none" width="100%" height="100%" requiredFeatures="http://www.w3.org/TR/SVG11/feature#Extensibility" style="overflow: visible; text-align: left;"><div xmlns="http://www.w3.org/1999/xhtml" style="display: flex; align-items: unsafe flex-start; justify-content: unsafe center; width: 118px; height: 1px; padding-top: 207px; margin-left: 402px;"><div data-drawio-colors="color: #8C4FFF; " style="box-sizing: border-box; font-size: 0px; text-align: center;"><div style="display: inline-block; font-size: 12px; font-family: Helvetica; color: rgb(140, 79, 255); line-height: 1.2; pointer-events: none; font-weight: bold; white-space: normal; overflow-wrap: normal;">Hub</div></div></div></foreignObject><text x="461" y="219" fill="#8C4FFF" font-family="Helvetica" font-size="12px" text-anchor="middle" font-weight="bold">Hub</text></switch></g><path d="M 437 230 L 485 230 L 485 278 L 437 278 Z" fill="#000000" stroke="none" pointer-events="none" transform="translate(2,3)" opacity="0.25"/><path d="M 437 230 L 485 230 L 485 278 L 437 278 Z" fill="#8c4fff" stroke="none" pointer-events="none"/><path d="M 463.3 271.62 C 464.06 270.97 464.56 270.01 464.56 268.93 C 464.56 267.22 463.33 265.78 461.71 265.45 L 461.71 259.64 C 464.28 259.32 466.32 257.28 466.64 254.71 L 472.45 254.71 C 472.78 256.33 474.22 257.56 475.93 257.56 C 477.01 257.56 477.97 257.06 478.62 256.3 C 477.59 264.26 471.26 270.59 463.3 271.62 M 443.38 256.3 C 444.03 257.06 444.99 257.56 446.07 257.56 C 447.78 257.56 449.22 256.33 449.55 254.71 L 455.36 254.71 C 455.68 257.28 457.72 259.32 460.29 259.64 L 460.29 265.45 C 458.67 265.78 457.44 267.22 457.44 268.93 C 457.44 270.01 457.94 270.97 458.7 271.62 C 450.73 270.59 444.41 264.26 443.38 256.3 M 448.2 254 C 448.2 255.18 447.24 256.13 446.07 256.13 C 444.89 256.13 443.93 255.18 443.93 254 C 443.93 252.82 444.89 251.87 446.07 251.87 C 447.24 251.87 448.2 252.82 448.2 254 M 458.7 236.38 C 457.94 237.03 457.44 237.99 457.44 239.07 C 457.44 240.78 458.67 242.22 460.29 242.55 L 460.29 248.36 C 457.72 248.68 455.68 250.72 455.36 253.29 L 449.55 253.29 C 449.22 251.67 447.78 250.44 446.07 250.44 C 444.99 250.44 444.03 250.94 443.38 251.7 C 444.41 243.73 450.73 237.41 458.7 236.38 M 461 236.93 C 462.18 236.93 463.13 237.89 463.13 239.07 C 463.13 240.24 462.18 241.2 461 241.2 C 459.82 241.2 458.87 240.24 458.87 239.07 C 458.87 237.89 459.82 236.93 461 236.93 M 461 258.27 C 458.65 258.27 456.73 256.35 456.73 254 C 456.73 251.65 458.65 249.73 461 249.73 C 463.35 249.73 465.27 251.65 465.27 254 C 465.27 256.35 463.35 258.27 461 258.27 M 461 271.07 C 459.82 271.07 458.87 270.11 458.87 268.93 C 458.87 267.76 459.82 266.8 461 266.8 C 462.18 266.8 463.13 267.76 463.13 268.93 C 463.13 270.11 462.18 271.07 461 271.07 M 478.07 254 C 478.07 255.18 477.11 256.13 475.93 256.13 C 474.76 256.13 473.8 255.18 473.8 254 C 473.8 252.82 474.76 251.87 475.93 251.87 C 477.11 251.87 478.07 252.82 478.07 254 M 478.62 251.7 C 477.97 250.94 477.01 250.44 475.93 250.44 C 474.22 250.44 472.78 251.67 472.45 253.29 L 466.64 253.29 C 466.32 250.72 464.28 248.68 461.71 248.36 L 461.71 242.55 C 463.33 242.22 464.56 240.78 464.56 239.07 C 464.56 237.99 464.06 237.03 463.3 236.38 C 471.26 237.41 477.59 243.73 478.62 251.7 M 461 234.8 C 450.41 234.8 441.8 243.41 441.8 254 C 441.8 264.59 450.41 273.2 461 273.2 C 471.59 273.2 480.2 264.59 480.2 254 C 480.2 243.41 471.59 234.8 461 234.8" fill="#ffffff" stroke="none" pointer-events="none"/><g transform="translate(-0.5 -0.5)"><switch><foreignObject pointer-events="none" width="100%" height="100%" requiredFeatures="http://www.w3.org/TR/SVG11/feature#Extensibility" style="overflow: visible; text-align: left;"><div xmlns="http://www.w3.org/1999/xhtml" style="display: flex; align-items: unsafe flex-start; justify-content: unsafe center; width: 1px; height: 1px; padding-top: 285px; margin-left: 461px;"><div data-drawio-colors="color: #232F3E; " style="box-sizing: border-box; font-size: 0px; text-align: center;"><div style="display: inline-block; font-size: 10px; font-family: Helvetica; color: rgb(35, 47, 62); line-height: 1.2; pointer-events: none; white-space: nowrap;">Transit Gateway<div><i>shared hub</i></div></div></div></div></foreignObject><text x="461" y="295" fill="#232F3E" font-family="Helvetica" font-size="10px" text-anchor="middle">Transit G...</text></switch></g><rect x="401" y="360" width="120" height="120" rx="18" ry="18" fill="#000000" stroke="#000000" stroke-width="1.5" pointer-events="none" transform="translate(2,3)" opacity="0.25"/><rect x="401" y="360" width="120" height="120" rx="18" ry="18" fill="#ffebee" stroke="#dd344c" stroke-width="1.5" pointer-events="none"/><g transform="translate(-0.5 -0.5)"><switch><foreignObject pointer-events="none" width="100%" height="100%" requiredFeatures="http://www.w3.org/TR/SVG11/feature#Extensibility" style="overflow: visible; text-align: left;"><div xmlns="http://www.w3.org/1999/xhtml" style="display: flex; align-items: unsafe flex-start; justify-content: unsafe center; width: 118px; height: 1px; padding-top: 367px; margin-left: 402px;"><div data-drawio-colors="color: #DD344C; " style="box-sizing: border-box; font-size: 0px; text-align: center;"><div style="display: inline-block; font-size: 12px; font-family: Helvetica; color: rgb(221, 52, 76); line-height: 1.2; pointer-events: none; font-weight: bold; white-space: normal; overflow-wrap: normal;">Share</div></div></div></foreignObject><text x="461" y="379" fill="#DD344C" font-family="Helvetica" font-size="12px" text-anchor="middle" font-weight="bold">Share</text></switch></g><path d="M 437 390 L 485 390 L 485 438 L 437 438 Z" fill="#000000" stroke="none" pointer-events="none" transform="translate(2,3)" opacity="0.25"/><path d="M 437 390 L 485 390 L 485 438 L 437 438 Z" fill="#dd344c" stroke="none" pointer-events="none"/><path d="M 456.2 427.71 C 456.2 427.34 455.89 427.03 455.51 427.03 C 455.14 427.03 454.83 427.34 454.83 427.71 C 454.83 428.09 455.14 428.4 455.51 428.4 C 455.89 428.4 456.2 428.09 456.2 427.71 Z M 457.57 427.71 C 457.57 428.85 456.65 429.77 455.51 429.77 C 454.38 429.77 453.46 428.85 453.46 427.71 C 453.46 426.58 454.38 425.66 455.51 425.66 C 456.65 425.66 457.57 426.58 457.57 427.71 Z M 470.9 428.29 L 469.63 427.03 L 460.12 427.03 C 459.81 427.03 459.54 426.83 459.46 426.54 C 458.94 424.81 457.32 423.6 455.51 423.6 C 453.25 423.6 451.4 425.45 451.4 427.71 C 451.4 429.98 453.25 431.83 455.51 431.83 C 457.1 431.83 458.55 430.91 459.23 429.48 C 459.35 429.24 459.59 429.09 459.85 429.09 L 461.69 429.09 C 461.87 429.09 462.04 429.16 462.17 429.29 L 463.06 430.17 L 463.94 429.29 C 464.07 429.16 464.25 429.09 464.43 429.09 L 465.8 429.09 C 465.98 429.09 466.16 429.16 466.28 429.29 L 467.17 430.17 L 468.06 429.29 C 468.19 429.16 468.36 429.09 468.54 429.09 L 469.71 429.09 Z M 472.46 427.92 C 472.6 428.06 472.67 428.26 472.65 428.47 C 472.63 428.67 472.52 428.86 472.35 428.97 L 470.29 430.34 C 470.18 430.42 470.05 430.46 469.91 430.46 L 468.83 430.46 L 467.66 431.63 C 467.39 431.9 466.95 431.9 466.69 431.63 L 465.52 430.46 L 464.71 430.46 L 463.54 431.63 C 463.27 431.9 462.84 431.9 462.57 431.63 L 461.4 430.46 L 460.27 430.46 C 459.29 432.14 457.47 433.2 455.51 433.2 C 452.49 433.2 450.03 430.74 450.03 427.71 C 450.03 424.69 452.49 422.23 455.51 422.23 C 457.75 422.23 459.77 423.62 460.6 425.66 L 469.91 425.66 C 470.1 425.66 470.27 425.73 470.4 425.86 Z M 466.08 403.71 L 469.91 407.54 L 473.74 403.71 L 469.91 399.88 Z M 469.43 409 L 464.63 404.2 C 464.36 403.93 464.36 403.5 464.63 403.23 L 469.43 398.43 C 469.7 398.16 470.13 398.16 470.4 398.43 L 475.2 403.23 C 475.47 403.5 475.47 403.93 475.2 404.2 L 470.4 409 C 470.27 409.13 470.09 409.2 469.91 409.2 C 469.74 409.2 469.56 409.13 469.43 409 Z M 456.95 406.46 L 452.77 400.76 L 448.63 406.46 Z M 458.3 407.83 L 447.29 407.83 C 447.03 407.83 446.79 407.68 446.67 407.45 C 446.56 407.22 446.58 406.95 446.73 406.74 L 452.22 399.2 C 452.35 399.02 452.55 398.91 452.77 398.91 C 453.01 398.9 453.2 399.02 453.32 399.19 L 458.85 406.74 C 459.01 406.95 459.03 407.22 458.91 407.45 C 458.79 407.68 458.56 407.83 458.3 407.83 Z M 448.66 415.71 C 448.66 417.79 450.35 419.49 452.43 419.49 C 454.51 419.49 456.2 417.79 456.2 415.71 C 456.2 413.63 454.51 411.94 452.43 411.94 C 450.35 411.94 448.66 413.63 448.66 415.71 Z M 447.29 415.71 C 447.29 412.88 449.59 410.57 452.43 410.57 C 455.26 410.57 457.57 412.88 457.57 415.71 C 457.57 418.55 455.26 420.86 452.43 420.86 C 449.59 420.86 447.29 418.55 447.29 415.71 Z M 466.49 418.8 L 472.66 418.8 L 472.66 412.63 L 466.49 412.63 Z M 474.03 419.49 C 474.03 419.86 473.72 420.17 473.34 420.17 L 465.8 420.17 C 465.42 420.17 465.11 419.86 465.11 419.49 L 465.11 411.94 C 465.11 411.56 465.42 411.26 465.8 411.26 L 473.34 411.26 C 473.72 411.26 474.03 411.56 474.03 411.94 Z M 480.2 395.49 L 480.2 429.77 C 480.2 430.15 479.89 430.46 479.51 430.46 L 474.03 430.46 L 474.03 429.09 L 478.83 429.09 L 478.83 396.17 L 443.17 396.17 L 443.17 429.09 L 447.97 429.09 L 447.97 430.46 L 442.49 430.46 C 442.11 430.46 441.8 430.15 441.8 429.77 L 441.8 395.49 C 441.8 395.11 442.11 394.8 442.49 394.8 L 479.51 394.8 C 479.89 394.8 480.2 395.11 480.2 395.49 Z" fill="#ffffff" stroke="none" pointer-events="none"/><g transform="translate(-0.5 -0.5)"><switch><foreignObject pointer-events="none" width="100%" height="100%" requiredFeatures="http://www.w3.org/TR/SVG11/feature#Extensibility" style="overflow: visible; text-align: left;"><div xmlns="http://www.w3.org/1999/xhtml" style="display: flex; align-items: unsafe flex-start; justify-content: unsafe center; width: 1px; height: 1px; padding-top: 445px; margin-left: 461px;"><div data-drawio-colors="color: #232F3E; " style="box-sizing: border-box; font-size: 0px; text-align: center;"><div style="display: inline-block; font-size: 10px; font-family: Helvetica; color: rgb(35, 47, 62); line-height: 1.2; pointer-events: none; white-space: nowrap;">AWS RAM<div><i>cross-account</i></div></div></div></div></foreignObject><text x="461" y="455" fill="#232F3E" font-family="Helvetica" font-size="10px" text-anchor="middle">AWS RAM...</text></switch></g><rect x="601" y="110" width="500" height="400" rx="60" ry="60" fill="#000000" stroke="#000000" pointer-events="none" transform="translate(2,3)" opacity="0.25"/><rect x="601" y="110" width="500" height="400" rx="60" ry="60" fill="#f5f5f5" stroke="light-dark(#666666,#d4d4d4)" pointer-events="none"/><g transform="translate(-0.5 -0.5)"><switch><foreignObject pointer-events="none" width="100%" height="100%" requiredFeatures="http://www.w3.org/TR/SVG11/feature#Extensibility" style="overflow: visible; text-align: left;"><div xmlns="http://www.w3.org/1999/xhtml" style="display: flex; align-items: unsafe flex-start; justify-content: unsafe center; width: 498px; height: 1px; padding-top: 117px; margin-left: 602px;"><div data-drawio-colors="color: #333333; " style="box-sizing: border-box; font-size: 0px; text-align: center;"><div style="display: inline-block; font-size: 12px; font-family: Helvetica; color: rgb(51, 51, 51); line-height: 1.2; pointer-events: none; font-weight: bold; white-space: normal; overflow-wrap: normal;">shared-services · 10.13.0.0/16</div></div></div></foreignObject><text x="851" y="129" fill="#333333" font-family="Helvetica" font-size="12px" text-anchor="middle" font-weight="bold">shared-services · 10.13.0.0/16</text></switch></g><rect x="621" y="150" width="460" height="340" rx="51" ry="51" fill="light-dark(#8c4fff0d,#8c4fff0d)" stroke="#8c4fff" pointer-events="none"/><g transform="translate(-0.5 -0.5)"><switch><foreignObject pointer-events="none" width="100%" height="100%" requiredFeatures="http://www.w3.org/TR/SVG11/feature#Extensibility" style="overflow: visible; text-align: left;"><div xmlns="http://www.w3.org/1999/xhtml" style="display: flex; align-items: unsafe flex-start; justify-content: unsafe center; width: 458px; height: 1px; padding-top: 157px; margin-left: 622px;"><div data-drawio-colors="color: #8C4FFF; " style="box-sizing: border-box; font-size: 0px; text-align: center;"><div style="display: inline-block; font-size: 12px; font-family: Helvetica; color: rgb(140, 79, 255); line-height: 1.2; pointer-events: none; font-weight: bold; white-space: normal; overflow-wrap: normal;">Shared-services VPC</div></div></div></foreignObject><text x="851" y="169" fill="#8C4FFF" font-family="Helvetica" font-size="12px" text-anchor="middle" font-weight="bold">Shared-services VPC</text></switch></g><rect x="721" y="250" width="120" height="120" rx="18" ry="18" fill="#000000" stroke="#000000" stroke-width="1.5" pointer-events="none" transform="translate(2,3)" opacity="0.25"/><rect x="721" y="250" width="120" height="120" rx="18" ry="18" fill="#ede7f6" stroke="#8c4fff" stroke-width="1.5" pointer-events="none"/><g transform="translate(-0.5 -0.5)"><switch><foreignObject pointer-events="none" width="100%" height="100%" requiredFeatures="http://www.w3.org/TR/SVG11/feature#Extensibility" style="overflow: visible; text-align: left;"><div xmlns="http://www.w3.org/1999/xhtml" style="display: flex; align-items: unsafe flex-start; justify-content: unsafe center; width: 118px; height: 1px; padding-top: 257px; margin-left: 722px;"><div data-drawio-colors="color: #8C4FFF; " style="box-sizing: border-box; font-size: 0px; text-align: center;"><div style="display: inline-block; font-size: 12px; font-family: Helvetica; color: rgb(140, 79, 255); line-height: 1.2; pointer-events: none; font-weight: bold; white-space: normal; overflow-wrap: normal;">Load balancer</div></div></div></foreignObject><text x="781" y="269" fill="#8C4FFF" font-family="Helvetica" font-size="12px" text-anchor="middle" font-weight="bold">Load balancer</text></switch></g><path d="M 781 280 C 767.77 280 757 290.77 757 304 C 757 317.23 767.77 328 781 328 C 794.23 328 805 317.23 805 304 C 805 290.77 794.23 280 781 280 Z M 781 325.82 C 768.97 325.82 759.18 316.03 759.18 304 C 759.18 291.97 768.97 282.18 781 282.18 C 793.03 282.18 802.82 291.97 802.82 304 C 802.82 316.03 793.03 325.82 781 325.82 Z M 795.22 310.55 L 793.55 310.55 L 793.55 306.86 C 793.55 306.26 793.06 305.77 792.45 305.77 L 789.73 305.77 L 789.73 302.09 C 789.73 301.49 789.24 301 788.64 301 L 782.09 301 L 782.09 298.41 L 788.64 298.41 C 789.24 298.41 789.73 297.92 789.73 297.32 L 789.73 288.73 C 789.73 288.12 789.24 287.64 788.64 287.64 L 773.36 287.64 C 772.76 287.64 772.27 288.12 772.27 288.73 L 772.27 297.32 C 772.27 297.92 772.76 298.41 773.36 298.41 L 779.91 298.41 L 779.91 301 L 773.36 301 C 772.76 301 772.27 301.49 772.27 302.09 L 772.27 305.77 L 769.55 305.77 C 768.94 305.77 768.46 306.26 768.46 306.86 L 768.46 310.55 L 766.78 310.55 C 766.18 310.55 765.69 311.03 765.69 311.64 L 765.69 316.41 C 765.69 317.01 766.18 317.5 766.78 317.5 L 771.46 317.5 C 772.06 317.5 772.55 317.01 772.55 316.41 L 772.55 311.64 C 772.55 311.03 772.06 310.55 771.46 310.55 L 770.64 310.55 L 770.64 307.95 L 775.14 307.95 L 775.14 310.55 L 774.32 310.55 C 773.72 310.55 773.23 311.03 773.23 311.64 L 773.23 316.41 C 773.23 317.01 773.72 317.5 774.32 317.5 L 779.09 317.5 C 779.69 317.5 780.18 317.01 780.18 316.41 L 780.18 311.64 C 780.18 311.03 779.69 310.55 779.09 310.55 L 777.32 310.55 L 777.32 306.86 C 777.32 306.26 776.83 305.77 776.23 305.77 L 774.46 305.77 L 774.46 303.18 L 787.55 303.18 L 787.55 305.77 L 785.77 305.77 C 785.17 305.77 784.68 306.26 784.68 306.86 L 784.68 310.55 L 782.91 310.55 C 782.31 310.55 781.82 311.03 781.82 311.64 L 781.82 316.41 C 781.82 317.01 782.31 317.5 782.91 317.5 L 787.68 317.5 C 788.28 317.5 788.77 317.01 788.77 316.41 L 788.77 311.64 C 788.77 311.03 788.28 310.55 787.68 310.55 L 786.86 310.55 L 786.86 307.95 L 791.36 307.95 L 791.36 310.55 L 790.48 310.55 C 789.88 310.55 789.39 311.03 789.39 311.64 L 789.39 316.41 C 789.39 317.01 789.88 317.5 790.48 317.5 L 795.22 317.5 C 795.82 317.5 796.31 317.01 796.31 316.41 L 796.31 311.64 C 796.31 311.03 795.82 310.55 795.22 310.55 Z M 774.46 296.23 L 774.46 289.82 L 787.55 289.82 L 787.55 296.23 Z M 767.87 315.32 L 767.87 312.73 L 770.36 312.73 L 770.36 315.32 Z M 775.41 315.32 L 775.41 312.73 L 778 312.73 L 778 315.32 Z M 784 315.32 L 784 312.73 L 786.59 312.73 L 786.59 315.32 Z M 791.57 315.32 L 791.57 312.73 L 794.13 312.73 L 794.13 315.32 Z" fill="#8c4fff" stroke="none" pointer-events="none"/><g transform="translate(-0.5 -0.5)"><switch><foreignObject pointer-events="none" width="100%" height="100%" requiredFeatures="http://www.w3.org/TR/SVG11/feature#Extensibility" style="overflow: visible; text-align: left;"><div xmlns="http://www.w3.org/1999/xhtml" style="display: flex; align-items: unsafe flex-start; justify-content: unsafe center; width: 1px; height: 1px; padding-top: 335px; margin-left: 781px;"><div data-drawio-colors="color: #232F3E; " style="box-sizing: border-box; font-size: 0px; text-align: center;"><div style="display: inline-block; font-size: 10px; font-family: Helvetica; color: rgb(35, 47, 62); line-height: 1.2; pointer-events: none; white-space: nowrap;">ALB<div><i>internal DNS</i></div></div></div></div></foreignObject><text x="781" y="345" fill="#232F3E" font-family="Helvetica" font-size="10px" text-anchor="middle">ALB...</text></switch></g><rect x="921" y="250" width="120" height="120" rx="18" ry="18" fill="#000000" stroke="#000000" stroke-width="1.5" pointer-events="none" transform="translate(2,3)" opacity="0.25"/><rect x="921" y="250" width="120" height="120" rx="18" ry="18" fill="#fff2e8" stroke="#ed7100" stroke-width="1.5" pointer-events="none"/><g transform="translate(-0.5 -0.5)"><switch><foreignObject pointer-events="none" width="100%" height="100%" requiredFeatures="http://www.w3.org/TR/SVG11/feature#Extensibility" style="overflow: visible; text-align: left;"><div xmlns="http://www.w3.org/1999/xhtml" style="display: flex; align-items: unsafe flex-start; justify-content: unsafe center; width: 118px; height: 1px; padding-top: 257px; margin-left: 922px;"><div data-drawio-colors="color: #ED7100; " style="box-sizing: border-box; font-size: 0px; text-align: center;"><div style="display: inline-block; font-size: 12px; font-family: Helvetica; color: rgb(237, 113, 0); line-height: 1.2; pointer-events: none; font-weight: bold; white-space: normal; overflow-wrap: normal;">API</div></div></div></foreignObject><text x="981" y="269" fill="#ED7100" font-family="Helvetica" font-size="12px" text-anchor="middle" font-weight="bold">API</text></switch></g><path d="M 957 280 L 1005 280 L 1005 328 L 957 328 Z" fill="#000000" stroke="none" pointer-events="none" transform="translate(2,3)" opacity="0.25"/><path d="M 957 280 L 1005 280 L 1005 328 L 957 328 Z" fill="#ed7100" stroke="none" pointer-events="none"/><path d="M 972.09 312.91 L 989.23 312.91 L 989.23 295.77 L 972.09 295.77 Z M 990.6 295.77 L 993.34 295.77 L 993.34 297.14 L 990.6 297.14 L 990.6 299.89 L 993.34 299.89 L 993.34 301.26 L 990.6 301.26 L 990.6 303.31 L 993.34 303.31 L 993.34 304.69 L 990.6 304.69 L 990.6 307.43 L 993.34 307.43 L 993.34 308.8 L 990.6 308.8 L 990.6 311.54 L 993.34 311.54 L 993.34 312.91 L 990.6 312.91 L 990.6 313.01 C 990.6 313.71 990.03 314.29 989.32 314.29 L 989.23 314.29 L 989.23 317.03 L 987.86 317.03 L 987.86 314.29 L 985.11 314.29 L 985.11 317.03 L 983.74 317.03 L 983.74 314.29 L 981.69 314.29 L 981.69 317.03 L 980.31 317.03 L 980.31 314.29 L 977.57 314.29 L 977.57 317.03 L 976.2 317.03 L 976.2 314.29 L 973.46 314.29 L 973.46 317.03 L 972.09 317.03 L 972.09 314.29 L 971.99 314.29 C 971.29 314.29 970.71 313.71 970.71 313.01 L 970.71 312.91 L 968.66 312.91 L 968.66 311.54 L 970.71 311.54 L 970.71 308.8 L 968.66 308.8 L 968.66 307.43 L 970.71 307.43 L 970.71 304.69 L 968.66 304.69 L 968.66 303.31 L 970.71 303.31 L 970.71 301.26 L 968.66 301.26 L 968.66 299.89 L 970.71 299.89 L 970.71 297.14 L 968.66 297.14 L 968.66 295.77 L 970.71 295.77 L 970.71 295.68 C 970.71 294.97 971.29 294.4 971.99 294.4 L 972.09 294.4 L 972.09 291.66 L 973.46 291.66 L 973.46 294.4 L 976.2 294.4 L 976.2 291.66 L 977.57 291.66 L 977.57 294.4 L 980.31 294.4 L 980.31 291.66 L 981.69 291.66 L 981.69 294.4 L 983.74 294.4 L 983.74 291.66 L 985.11 291.66 L 985.11 294.4 L 987.86 294.4 L 987.86 291.66 L 989.23 291.66 L 989.23 294.4 L 989.32 294.4 C 990.03 294.4 990.6 294.97 990.6 295.68 Z M 981.69 321.74 C 981.69 321.79 981.65 321.83 981.6 321.83 L 963.26 321.83 C 963.21 321.83 963.17 321.79 963.17 321.74 L 963.17 303.4 C 963.17 303.35 963.21 303.31 963.26 303.31 L 967.29 303.31 L 967.29 301.94 L 963.26 301.94 C 962.45 301.94 961.8 302.6 961.8 303.4 L 961.8 321.74 C 961.8 322.55 962.45 323.2 963.26 323.2 L 981.6 323.2 C 982.4 323.2 983.06 322.55 983.06 321.74 L 983.06 318.4 L 981.69 318.4 Z M 1000.2 286.26 L 1000.2 304.6 C 1000.2 305.4 999.55 306.06 998.74 306.06 L 994.71 306.06 L 994.71 304.69 L 998.74 304.69 C 998.79 304.69 998.83 304.65 998.83 304.6 L 998.83 286.26 C 998.83 286.21 998.79 286.17 998.74 286.17 L 980.4 286.17 C 980.35 286.17 980.31 286.21 980.31 286.26 L 980.31 290.29 L 978.94 290.29 L 978.94 286.26 C 978.94 285.45 979.6 284.8 980.4 284.8 L 998.74 284.8 C 999.55 284.8 1000.2 285.45 1000.2 286.26 Z" fill="#ffffff" stroke="none" pointer-events="none"/><g transform="translate(-0.5 -0.5)"><switch><foreignObject pointer-events="none" width="100%" height="100%" requiredFeatures="http://www.w3.org/TR/SVG11/feature#Extensibility" style="overflow: visible; text-align: left;"><div xmlns="http://www.w3.org/1999/xhtml" style="display: flex; align-items: unsafe flex-start; justify-content: unsafe center; width: 1px; height: 1px; padding-top: 335px; margin-left: 981px;"><div data-drawio-colors="color: #232F3E; " style="box-sizing: border-box; font-size: 0px; text-align: center;"><div style="display: inline-block; font-size: 10px; font-family: Helvetica; color: rgb(35, 47, 62); line-height: 1.2; pointer-events: none; white-space: nowrap;">Amazon EC2<div><i>pattern=tgw</i></div></div></div></div></foreignObject><text x="981" y="345" fill="#232F3E" font-family="Helvetica" font-size="10px" text-anchor="middle">Amazon EC...</text></switch></g><path d="M 185 254 L 429.7 254" fill="none" stroke="#545b64" stroke-width="1.5" stroke-miterlimit="10" pointer-events="none"/><path d="M 435.32 254 L 427.82 257.75 L 429.7 254 L 427.82 250.25 Z" fill="#545b64" stroke="#545b64" stroke-width="1.5" stroke-miterlimit="10" pointer-events="none"/><g transform="translate(-0.5 -0.5)"><switch><foreignObject pointer-events="none" width="100%" height="100%" requiredFeatures="http://www.w3.org/TR/SVG11/feature#Extensibility" style="overflow: visible; text-align: left;"><div xmlns="http://www.w3.org/1999/xhtml" style="display: flex; align-items: unsafe center; justify-content: unsafe center; width: 1px; height: 1px; padding-top: 255px; margin-left: 267px;"><div data-drawio-colors="color: #0073BB; background-color: #FFFFFF; " style="box-sizing: border-box; font-size: 0px; text-align: center;"><div style="display: inline-block; font-size: 11px; font-family: Helvetica; color: rgb(0, 115, 187); line-height: 1.2; pointer-events: none; background-color: rgb(255, 255, 255); white-space: nowrap;">L3 via TGW</div></div></div></foreignObject><text x="267" y="258" fill="#0073BB" font-family="Helvetica" font-size="11px" text-anchor="middle">L3 via TGW</text></switch></g><path d="M 485 254 L 691 254 Q 701 254 701 264 L 701 294 Q 701 304 711 304 L 749.7 304" fill="none" stroke="#545b64" stroke-width="1.5" stroke-miterlimit="10" pointer-events="none"/><path d="M 755.32 304 L 747.82 307.75 L 749.7 304 L 747.82 300.25 Z" fill="#545b64" stroke="#545b64" stroke-width="1.5" stroke-miterlimit="10" pointer-events="none"/><path d="M 805 304 L 949.7 304" fill="none" stroke="#545b64" stroke-width="1.5" stroke-miterlimit="10" pointer-events="none"/><path d="M 955.32 304 L 947.82 307.75 L 949.7 304 L 947.82 300.25 Z" fill="#545b64" stroke="#545b64" stroke-width="1.5" stroke-miterlimit="10" pointer-events="none"/></g><switch><g requiredFeatures="http://www.w3.org/TR/SVG11/feature#Extensibility"/><a transform="translate(0,-5)" xlink:href="https://www.diagrams.net/doc/faq/svg-export-text-problems" target="_blank"><text text-anchor="middle" font-size="10px" x="50%" y="100%">Text is not SVG - cannot display</text></a></switch></svg>